<?xml version="1.0" encoding="UTF-8" standalone="no"?>
<!-- Created with Inkscape (http://www.inkscape.org/) -->

<svg
   xmlns:dc="http://purl.org/dc/elements/1.1/"
   xmlns:cc="http://creativecommons.org/ns#"
   xmlns:rdf="http://www.w3.org/1999/02/22-rdf-syntax-ns#"
   xmlns:svg="http://www.w3.org/2000/svg"
   xmlns="http://www.w3.org/2000/svg"
   xmlns:sodipodi="http://sodipodi.sourceforge.net/DTD/sodipodi-0.dtd"
   xmlns:inkscape="http://www.inkscape.org/namespaces/inkscape"
   id="svg2"
   version="1.1"
   inkscape:version="0.91 r13725"
   width="842.5"
   height="730"
   viewBox="0 0 842.5 730"
   sodipodi:docname="osc555.svg">
  <metadata
     id="metadata8">
    <rdf:RDF>
      <cc:Work
         rdf:about="">
        <dc:format>image/svg+xml</dc:format>
        <dc:type
           rdf:resource="http://purl.org/dc/dcmitype/StillImage" />
        <dc:title></dc:title>
      </cc:Work>
    </rdf:RDF>
  </metadata>
  <defs
     id="defs6" />
  <sodipodi:namedview
     pagecolor="#ffffff"
     bordercolor="#666666"
     borderopacity="1"
     objecttolerance="10"
     gridtolerance="10"
     guidetolerance="10"
     inkscape:pageopacity="0"
     inkscape:pageshadow="2"
     inkscape:window-width="1920"
     inkscape:window-height="1056"
     id="namedview4"
     showgrid="false"
     inkscape:zoom="0.64657534"
     inkscape:cx="274.51138"
     inkscape:cy="290.76595"
     inkscape:window-x="0"
     inkscape:window-y="24"
     inkscape:window-maximized="1"
     inkscape:current-layer="svg2" />
  <path
     style="fill:#000000"
     d="m 133.98305,620.34958 0,-75.625 -20,0 c -12.5,0 -19.999996,-0.46875 -19.999996,-1.25 0,-0.80808 14.583326,-1.25 41.249996,-1.25 26.66666,0 41.25,0.44192 41.25,1.25 0,0.78125 -7.5,1.25 -20,1.25 l -20,0 0,75 0,75 98.75,0 98.75,0 0,-17.5 0,-17.5 -6.25,0 -6.25,0 0,8.125 c 0,7.83334 -0.11213,8.125 -3.125,8.125 l -3.125,0 0,-18.75 0,-18.75 9.375,0 9.375,0 0,-6.875 0,-6.875 -20,0 c -12.5,0 -20,-0.46875 -20,-1.25 0,-0.80808 14.58334,-1.25 41.25,-1.25 26.66666,0 41.25,0.44192 41.25,1.25 0,0.78125 -7.5,1.25 -20,1.25 l -20,0 0,6.875 c 0,6.04166 0.30302,6.875 2.5,6.875 1.66666,0 2.5,0.83334 2.5,2.5 0,1.66666 -0.83334,2.5 -2.5,2.5 -2.12963,0 -2.5,0.83334 -2.5,5.625 0,3.09375 0.5625,5.625 1.25,5.625 0.6875,0 1.25,1.125 1.25,2.5 0,1.375 -0.5625,2.5 -1.25,2.5 -0.77381,0 -1.25,6.66666 -1.25,17.5 l 0,17.5 68.75,0 68.75,0 0,-78.75 0,-78.75 -68.75,0 -68.75,0 0,35 0,35 20,0 c 12.5,0 20,0.46875 20,1.25 0,0.80808 -14.58334,1.25 -41.25,1.25 -26.66666,0 -41.25,-0.44192 -41.25,-1.25 0,-0.78125 7.5,-1.25 20,-1.25 l 20,0 0,-35 0,-35 -40,0 -40,0 0,-40 0,-40 -58.75,0 -58.75,0 0,35 0,35 20,0 c 12.5,0 20,0.46875 20,1.25 0,0.80808 -14.58334,1.25 -41.25,1.25 -26.66667,0 -41.249996,-0.44192 -41.249996,-1.25 0,-0.78125 7.499996,-1.25 19.999996,-1.25 l 20,0 0,-93.85754 0,-93.85753 6.25,-2.64055 c 3.4375,-1.4523 6.25,-3.00344 6.25,-3.44698 0,-1.3826 -30.38703,-13.81851 -31.25984,-12.7931 -0.45442,0.53389 -3.44498,3.83551 -6.64567,7.33694 l -5.81945,6.36625 7.55024,10.82125 7.55024,10.82126 -3.66126,0 c -3.17572,0 -4.46874,-1.23481 -9.75026,-9.31128 l -6.088996,-9.31127 -2.76755,3.37378 c -1.97263,2.40472 -2.78046,5.0792 -2.8125,9.31127 -0.0385,5.08919 -0.40214,5.9375 -2.54495,5.9375 -2.38889,0 -2.5,-0.83334 -2.5,-18.75 0,-17.91666 0.11111,-18.75 2.5,-18.75 2.26511,0 2.50511,0.85147 2.55442,9.0625 l 0.0544,9.0625 8.383076,-9.0773 c 6.43566,-6.96861 9.16448,-9.07386 11.7468,-9.0625 1.85005,0.009 3.6585,-0.46215 4.01878,-1.04509 0.36027,-0.58294 7.14348,-3.79029 15.07378,-7.12744 7.93029,-3.33716 14.41872,-6.4301 14.41872,-6.8732 0,-0.4431 -6.60938,-3.61487 -14.6875,-7.04838 -8.6116,-3.66027 -14.68751,-6.95444 -14.68751,-7.96313 0,-1.00795 6.08232,-4.31107 14.68751,-7.97637 8.07812,-3.44079 14.6875,-6.60739 14.6875,-7.03688 0,-0.42947 -6.57456,-3.57532 -14.61015,-6.99075 -8.03558,-3.41542 -14.83578,-6.88672 -15.11153,-7.71399 -0.29203,-0.87606 3.1988,-3.13843 8.36016,-5.41816 l 8.86152,-3.91405 0,-16.06387 0,-16.06389 -40.000006,0 -40,0 0,-41.25 0,-41.25 11.25,0 c 6.66667,0 11.25,0.50926 11.25,1.25 0,0.72916 -4.16666,1.25 -10,1.25 l -10,0 0,38.75 0,38.75 38.75,0 38.750006,0 0,-17.60754 0,-17.60753 6.25,-2.64055 c 3.4375,-1.4523 6.25,-3.00505 6.25,-3.45054 0,-0.4455 -6.60938,-3.61924 -14.6875,-7.05275 -8.6116,-3.66027 -14.68751,-6.95444 -14.68751,-7.96313 0,-1.00795 6.08232,-4.31107 14.68751,-7.97637 8.07812,-3.44079 14.6875,-6.60739 14.6875,-7.03688 0,-0.42947 -6.60938,-3.59011 -14.6875,-7.02362 -8.6116,-3.66027 -14.68751,-6.95444 -14.68751,-7.96313 0,-1.00795 6.08232,-4.31107 14.68751,-7.97637 8.07812,-3.44079 14.6875,-6.60739 14.6875,-7.03688 0,-0.42947 -6.57456,-3.57532 -14.61015,-6.99075 -8.03558,-3.41542 -14.83578,-6.886724 -15.11153,-7.713994 -0.29203,-0.87606 3.1988,-3.13843 8.36016,-5.41816 l 8.86152,-3.91404 0,-27.31389 0,-27.31388 48.85754,0 48.85753,0 2.64055,6.25 c 1.4523,3.4375 2.96667,6.25 3.36527,6.25 0.39858,0 3.53991,-6.60937 6.9807,-14.6875 3.83896,-9.01292 6.9485,-14.6875 8.04841,-14.6875 1.09991,0 4.20945,5.67458 8.04841,14.6875 3.44079,8.07813 6.56902,14.6875 6.95159,14.6875 0.38257,0 3.5108,-6.60937 6.95159,-14.6875 3.83896,-9.01292 6.9485,-14.6875 8.04841,-14.6875 1.09991,0 4.20945,5.67458 8.04841,14.6875 3.44079,8.07813 6.56902,14.6875 6.95159,14.6875 0.38257,0 3.49221,-6.56297 6.9103,-14.58439 3.41809,-8.02141 6.92775,-14.82159 7.79926,-15.11152 0.97858,-0.32554 3.08148,2.86188 5.49863,8.33439 l 3.91404,8.86152 17.31387,0 17.31389,0 0,60 0,60.000004 148.75,0 148.75,0 0,-20 0,-20 61.25,0 61.25,0 0,41.25 0,41.25 -61.25,0 -61.25,0 0,-20 0,-20 -98.75,0 -98.75,0 0,18.75 0,18.75 30,0 30,0 0,70 0,70 68.75,0 68.75,0 0,-20 0,-20 51.25,0 51.25,0 0,41.25 0,41.25 -51.25,0 -51.25,0 0,-20 0,-20 -38.75,0 -38.75,0 0,58.75 0,58.75 38.75,0 38.75,0 0,-20 0,-20 51.25,0 51.25,0 0,41.25 0,41.25 -51.25,0 -51.25,0 0,-20 0,-20 -40,0 -40,0 0,-60 0,-60 -28.75,0 -28.75,0 0,100 0,100 -20,0 -20,0 0,28.75 0,28.75 88.75,0 88.75,0 0,-20 0,-20 71.25,0 71.25,0 0,41.25 0,41.25 -71.25,0 -71.25,0 0,-20 0,-20 -88.75,0 -88.75,0 0,49.375 0,49.375 -171.24999,0 -171.25,0 0,-75.625 z m 200,28.75 0,-5.625 -6.25,0 -6.25,0 0,5.625 0,5.625 6.25,0 6.25,0 0,-5.625 z m 460,-53.125 0,-38.75 -68.75,0 -68.75,0 0,38.75 0,38.75 68.75,0 68.75,0 0,-38.75 z m -107.45747,19.06056 c -12.81823,-6.46627 -12.50847,-29.63972 0.47858,-35.80248 2.32744,-1.10444 5.71164,-2.00808 7.52045,-2.00808 7.53498,0 15.70844,5.99835 15.70844,11.52814 0,3.38766 -4.80051,2.77732 -6.43895,-0.81865 -2.92904,-6.42855 -11.97765,-7.01164 -17.50501,-1.12803 -4.25156,4.52559 -4.22983,16.33464 0.0385,20.87799 5.73652,6.10625 14.64165,5.32736 18.22065,-1.59368 1.06412,-2.05788 1.93481,-4.05081 1.93481,-4.42869 0,-0.37789 -2.53125,-0.68708 -5.625,-0.68708 -4.79166,0 -5.625,-0.37037 -5.625,-2.5 0,-2.24359 0.83334,-2.5 8.125,-2.5 l 8.125,0 0,10 c 0,9.16666 -0.20834,10 -2.5,10 -1.37789,0 -2.5,-0.83334 -2.5,-1.85663 0,-1.51492 -0.74769,-1.40075 -4.0625,0.62033 -5.01638,3.05854 -10.2275,3.15586 -15.89497,0.29686 z m 31.20747,-17.81056 0,-18.75 2.94889,0 c 2.40923,0 4.52521,2.55816 11.5625,13.97879 l 8.61361,13.97878 0.35344,-13.97878 c 0.32737,-12.9481 0.53475,-13.97879 2.8125,-13.97879 2.33612,0 2.45906,0.93739 2.45906,18.75 l 0,18.75 -3.04561,0 c -2.52313,0 -4.50677,-2.34681 -11.5625,-13.67945 l -8.51689,-13.67946 -0.35344,13.67946 c -0.32685,12.65042 -0.53842,13.67945 -2.8125,13.67945 -2.33612,0 -2.45906,-0.93739 -2.45906,-18.75 z m 36.25,0 0,-18.75 10.52885,0 c 10.04633,0 10.70175,0.17291 14.30185,3.77301 6.90854,6.90854 6.90854,23.04544 0,29.95398 -3.6001,3.6001 -4.25552,3.77301 -14.30185,3.77301 l -10.52885,0 0,-18.75 z m 21.15927,10.45642 c 1.93639,-2.46171 2.59073,-5.10269 2.59073,-10.45642 0,-10.14889 -2.97012,-13.75 -11.34073,-13.75 l -6.15927,0 0,13.75 0,13.75 6.15927,0 c 5.16513,0 6.57744,-0.5316 8.75,-3.29358 z m -261.15927,-241.70642 0,-168.75 -128.75,0 -128.75,0 0,168.75 0,168.75 128.75,0 128.75,0 0,-168.75 z M 340.1369,513.57073 c -2.00963,-2.00961 -3.65385,-4.54086 -3.65385,-5.625 0,-2.97924 3.72426,-2.36398 6.98447,1.15385 5.22134,5.63392 11.76553,2.88831 11.76553,-4.93623 0,-6.27211 -4.93331,-9.16118 -10.61235,-6.21486 -1.88289,0.97685 -4.26674,1.77609 -5.29746,1.77609 -1.89093,0 -1.81083,-2.62119 0.48702,-15.9375 l 0.70102,-4.0625 9.23588,0 c 8.32378,0 9.23589,0.24074 9.23589,2.43763 0,2.09073 -1.0228,2.49096 -7.1875,2.8125 -6.88709,0.35919 -7.20467,0.52525 -7.59849,3.9726 -0.37302,3.26536 -0.12687,3.52642 2.66433,2.82587 7.20205,-1.8076 14.62166,4.38597 14.62166,12.20551 0,11.56908 -13.36394,17.57427 -21.34615,9.59204 z m 127.59615,-10.09615 0,-12.5 -3.75,0 c -5.22326,0 -5.30448,-4.3766 -0.1005,-5.41739 2.16636,-0.43327 3.97855,-1.76674 4.45924,-3.28125 0.44537,-1.40325 1.61561,-2.55136 2.60053,-2.55136 1.47202,0 1.79077,3.22614 1.79077,18.125 0,17.29166 -0.11488,18.125 -2.5,18.125 -2.33334,0 -2.5,-0.83334 -2.5,-12.5 z m -191.25,-29.41515 c 0,-5.27765 3.76559,-10.45366 10.55109,-14.50306 10.0983,-6.0264 11.2045,-13.69702 2.10558,-14.6007 -3.51243,-0.34887 -4.17923,0.11587 -5.82821,4.0625 -2.33531,5.58919 -5.57846,5.96685 -5.57846,0.6496 0,-5.88492 4.82355,-9.94319 11.81819,-9.94319 6.30127,0 10.04786,2.66391 11.41661,8.11748 1.36302,5.43071 -1.70886,10.28388 -9.50825,15.02176 -10.81204,6.56797 -10.68124,8.11076 0.68767,8.11076 8.50244,0 9.33578,0.22315 9.33578,2.5 0,2.33334 -0.83334,2.5 -12.5,2.5 -10.39424,0 -12.5,-0.32263 -12.5,-1.91515 z m 5.8237,-79.40188 c -4.14557,-3.26091 -6.31363,-11.16766 -5.2535,-19.15925 1.49821,-11.29413 5.33343,-15.77372 13.50472,-15.77372 4.59202,0 9.67508,4.14684 9.67508,7.89306 0,2.92128 -4.05718,2.6537 -5.95991,-0.39306 -3.15682,-5.05486 -11.54009,-1.28396 -11.54009,5.19087 0,1.80697 0.61379,1.95858 3.99877,0.98778 6.15757,-1.76596 12.53719,1.82387 14.03793,7.89919 2.87333,11.63186 -9.38302,20.49745 -18.463,13.35513 z m 10.96201,-4.39726 c 2.11388,-2.11387 2.58223,-7.62569 0.87657,-10.31594 -0.62993,-0.99356 -2.7369,-1.49324 -5.27079,-1.25 -5.54043,0.53185 -7.64805,5.41974 -4.4449,10.30836 2.3921,3.65082 5.94097,4.15573 8.83912,1.25758 z m 46.86814,3.31044 c -2.00963,-2.00961 -3.65385,-4.54086 -3.65385,-5.625 0,-2.97924 3.72426,-2.36398 6.98447,1.15385 5.22134,5.63392 11.76553,2.88831 11.76553,-4.93623 0,-6.27211 -4.93331,-9.16118 -10.61235,-6.21486 -1.88289,0.97685 -4.26674,1.77609 -5.29746,1.77609 -1.89093,0 -1.81083,-2.62119 0.48702,-15.9375 l 0.70102,-4.0625 9.23588,0 c 8.32378,0 9.23589,0.24074 9.23589,2.43763 0,2.09073 -1.0228,2.49096 -7.1875,2.8125 -6.88709,0.35919 -7.20467,0.52525 -7.59849,3.9726 -0.37302,3.26536 -0.12687,3.52642 2.66433,2.82587 7.20205,-1.8076 14.62166,4.38598 14.62166,12.20551 0,11.56908 -13.36394,17.57427 -21.34615,9.59204 z m 27.5,0 c -2.00963,-2.00961 -3.65385,-4.54086 -3.65385,-5.625 0,-2.97924 3.72426,-2.36398 6.98447,1.15385 5.22134,5.63392 11.76553,2.88831 11.76553,-4.93623 0,-6.27211 -4.93331,-9.16118 -10.61235,-6.21486 -1.88289,0.97685 -4.26674,1.77609 -5.29746,1.77609 -1.89093,0 -1.81083,-2.62119 0.48702,-15.9375 l 0.70102,-4.0625 9.23588,0 c 8.32378,0 9.23589,0.24074 9.23589,2.43763 0,2.09073 -1.0228,2.49096 -7.1875,2.8125 -6.88709,0.35919 -7.20467,0.52525 -7.59849,3.9726 -0.37302,3.26536 -0.12687,3.52642 2.66433,2.82587 7.20205,-1.8076 14.62166,4.38598 14.62166,12.20551 0,11.56908 -13.36394,17.57427 -21.34615,9.59204 z m 27.5,0 c -2.00963,-2.00961 -3.65385,-4.54086 -3.65385,-5.625 0,-2.97924 3.72426,-2.36398 6.98447,1.15385 5.22134,5.63392 11.76553,2.88831 11.76553,-4.93623 0,-6.27211 -4.93331,-9.16118 -10.61235,-6.21486 -1.88289,0.97685 -4.26674,1.77609 -5.29746,1.77609 -1.89093,0 -1.81083,-2.62119 0.48702,-15.9375 l 0.70102,-4.0625 9.23588,0 c 8.32378,0 9.23589,0.24074 9.23589,2.43763 0,2.09073 -1.0228,2.49096 -7.1875,2.8125 -6.88709,0.35919 -7.20467,0.52525 -7.59849,3.9726 -0.37302,3.26536 -0.12687,3.52642 2.66433,2.82587 7.20205,-1.8076 14.62166,4.38598 14.62166,12.20551 0,11.56908 -13.36394,17.57427 -21.34615,9.59204 z m 85,-40 c -4.36154,-4.36153 -5.03045,-10.09615 -1.17766,-10.09615 1.60567,0 2.75482,1.1102 3.26878,3.15798 1.64057,6.53651 10.96914,7.28348 12.54506,1.00451 1.07708,-4.29141 -0.73029,-6.99754 -5.60782,-8.3964 -5.09397,-1.46093 -5.03,-4.16014 0.13029,-5.49732 3.42201,-0.88672 4.0625,-1.63138 4.0625,-4.72323 0,-3.36157 -0.36828,-3.67054 -4.375,-3.67054 -3.3381,0 -4.66744,0.66657 -5.60891,2.8125 -0.73995,1.6866 -2.33131,2.8125 -3.97524,2.8125 -2.49702,0 -2.63812,-0.36205 -1.58315,-4.0625 1.53378,-5.37998 4.25935,-7.1875 10.83802,-7.1875 9.26028,0 14.45177,7.84269 9.69088,14.63981 -1.28035,1.82795 -1.45677,2.96284 -0.5479,3.52455 2.68721,1.6608 3.80747,7.05594 2.3697,11.41243 -2.71575,8.2288 -13.72372,10.57518 -20.02955,4.26936 z M 281.48305,315.54527 c 0,-3.69694 10.16661,-26.25358 12.47622,-27.681 3.3022,-2.04086 0.46697,-3.13969 -8.10122,-3.13969 -8.54166,0 -9.375,-0.22223 -9.375,-2.5 0,-2.33334 0.83334,-2.5 12.5,-2.5 14.92565,0 15.29229,0.59544 7.64857,12.42174 -2.66828,4.12836 -5.84552,11.17858 -7.06052,15.66719 -1.9241,7.10818 -2.58834,8.16107 -5.14857,8.16107 -1.61672,0 -2.93948,-0.19319 -2.93948,-0.42931 z m 41.69625,-79.4962 c -6.40031,-2.73568 -8.58701,-11.08364 -4.32319,-16.5042 2.07431,-2.63707 2.153,-3.31784 0.625,-5.40749 -4.6091,-6.30333 0.73724,-14.4128 9.50194,-14.4128 8.7647,0 14.11104,8.10947 9.50194,14.4128 -1.528,2.08965 -1.44932,2.77042 0.625,5.40749 5.35422,6.80678 0.85033,16.14686 -8.25389,17.11673 -2.74893,0.29285 -6.20349,0.0172 -7.6768,-0.61253 z m 9.63592,-5.11847 c 2.74028,-1.46655 3.29467,-7.32918 0.91783,-9.70602 -0.825,-0.825 -2.9625,-1.5 -4.75,-1.5 -4.18436,0 -6.25,2.12774 -6.25,6.43789 0,5.10773 5.01553,7.47972 10.08217,4.76813 z m 0.54283,-21.83102 c 0,-3.44957 -0.34912,-3.75 -4.35788,-3.75 -3.21017,0 -4.47253,0.59534 -4.79322,2.26051 -0.82181,4.26735 0.78255,6.04598 5.08,5.63183 3.60292,-0.34721 4.0711,-0.82359 4.0711,-4.14234 z m 118.125,22.5 0,-4.375 -7.5,0 c -6.94638,0 -7.49953,-0.20761 -7.4935,-2.8125 0.009,-3.93954 14.93012,-24.6875 17.75416,-24.6875 1.98658,0 2.23934,1.26985 2.23934,11.25 0,10.41666 0.18519,11.25 2.5,11.25 1.66666,0 2.5,0.83334 2.5,2.5 0,1.66666 -0.83334,2.5 -2.5,2.5 -2.02381,0 -2.5,0.83334 -2.5,4.375 0,3.54166 -0.47619,4.375 -2.5,4.375 -2.02381,0 -2.5,-0.83334 -2.5,-4.375 z m 0,-15.875 c 0,-3.575 -0.45291,-5.96563 -1.00646,-5.3125 -2.51288,2.96488 -7.74354,10.46556 -7.74354,11.1041 0,0.38963 1.96875,0.7084 4.375,0.7084 l 4.375,0 0,-6.5 z m 302.5,240.25 0,-38.75 -48.75,0 -48.75,0 0,38.75 0,38.75 48.75,0 48.75,0 0,-38.75 z m -72.11812,1.33849 c 6.44217,-18.66658 6.5228,-18.81429 10.27538,-18.82634 3.75954,-0.0125 3.81772,0.0951 9.6875,17.84578 3.24788,9.82184 5.90524,18.25934 5.90524,18.75 0,0.49063 -1.33315,0.89207 -2.96255,0.89207 -2.44451,0 -3.23794,-0.98359 -4.53745,-5.625 l -1.5749,-5.625 -6.60839,0 -6.60837,0 -1.76308,5.3125 c -1.40596,4.23648 -2.42573,5.39126 -5.03478,5.70134 l -3.27173,0.38882 6.49313,-18.81417 z m 13.89879,-0.40099 c -0.48828,-1.54688 -1.55872,-4.75684 -2.37873,-7.13325 l -1.49095,-4.32074 -2.08049,6.10591 c -2.76719,8.12123 -2.75571,8.16058 2.37874,8.16058 4.05411,0 4.37857,-0.25551 3.57143,-2.8125 z m 25.71933,6.5625 0,-12.5 -3.75,0 c -5.22326,0 -5.30447,-4.3766 -0.1005,-5.41739 2.16636,-0.43327 3.97855,-1.76674 4.45924,-3.28125 0.44537,-1.40325 1.61561,-2.55136 2.60053,-2.55136 1.47202,0 1.79077,3.22614 1.79077,18.125 0,17.29166 -0.11488,18.125 -2.5,18.125 -2.33334,0 -2.5,-0.83334 -2.5,-12.5 z m -467.5,-47.5 0,-38.75 -58.75,0 -58.75,0 0,38.75 0,38.75 58.75,0 58.75,0 0,-38.75 z m 0,-80 0,-38.75 -30,0 -30,0 0,-30 0,-30 -28.75,0 -28.75,0 0,7.56927 0,7.56928 -6.25,2.59737 c -3.4375,1.42857 -6.25,2.96015 -6.25,3.40353 0,0.44339 6.60938,3.62135 14.6875,7.06214 8.60519,3.6653 14.6875,6.96842 14.6875,7.97637 0,1.00869 -6.0759,4.30286 -14.6875,7.96313 -8.07812,3.43351 -14.6875,6.59415 -14.6875,7.02362 0,0.42949 6.60938,3.59609 14.6875,7.03688 8.60519,3.6653 14.6875,6.96842 14.6875,7.97637 0,1.00869 -6.0759,4.30287 -14.6875,7.96313 -8.07812,3.43351 -14.6875,6.59415 -14.6875,7.02362 0,0.42949 6.56297,3.5775 14.58439,6.99559 8.02141,3.41809 14.81285,6.90151 15.09207,7.74095 0.29993,0.90163 -3.11094,3.14426 -8.33437,5.47985 l -8.84209,3.95361 0,16.08265 0,16.08264 58.75,0 58.75,0 0,-38.75 z m 500,0 0,-38.75 -48.75,0 -48.75,0 0,38.75 0,38.75 48.75,0 48.75,0 0,-38.75 z m -93.75,1.25 c 0,-17.91666 0.11112,-18.75 2.5,-18.75 2.38889,0 2.5,0.83334 2.5,18.75 0,17.91666 -0.11112,18.75 -2.5,18.75 -2.38889,0 -2.5,-0.83334 -2.5,-18.75 z m 12.5,0 0,-18.75 2.94889,0 c 2.40923,0 4.52521,2.55816 11.5625,13.97879 l 8.61361,13.97878 0.35344,-13.97878 c 0.32737,-12.9481 0.53475,-13.97879 2.8125,-13.97879 2.33612,0 2.45906,0.93739 2.45906,18.75 l 0,18.75 -3.04561,0 c -2.52313,0 -4.50677,-2.34681 -11.5625,-13.67945 l -8.51689,-13.67946 -0.35344,13.67946 c -0.32685,12.65042 -0.53842,13.67945 -2.8125,13.67945 -2.33612,0 -2.45906,-0.93739 -2.45906,-18.75 z m 33.75,16.83485 c 0,-5.27765 3.76559,-10.45366 10.55109,-14.50306 10.0983,-6.0264 11.2045,-13.69702 2.10559,-14.6007 -3.51244,-0.34887 -4.17924,0.11587 -5.82822,4.0625 -2.33531,5.58919 -5.57846,5.96685 -5.57846,0.6496 0,-5.88492 4.82355,-9.94319 11.81819,-9.94319 6.30127,0 10.04786,2.66391 11.41661,8.11748 1.36303,5.43071 -1.70886,10.28388 -9.50825,15.02176 -10.81204,6.56797 -10.68124,8.11076 0.68768,8.11076 8.50243,0 9.33577,0.22315 9.33577,2.5 0,2.33334 -0.83334,2.5 -12.5,2.5 -10.39424,0 -12.5,-0.32263 -12.5,-1.91515 z m -452.5,-109.33485 0,-50 40,0 40,0 0,-20 0,-20 10,0 10,0 0,-58.750004 0,-58.75 -17.56928,0 -17.56927,0 -2.59738,-6.25 c -1.42856,-3.4375 -2.99852,-6.25 -3.48881,-6.25 -0.49029,0 -3.70066,6.60938 -7.13417,14.6875 -3.47193,8.16851 -6.97437,14.6875 -7.89109,14.6875 -0.91673,0 -4.41916,-6.51899 -7.89109,-14.6875 -3.43351,-8.07812 -6.63252,-14.6875 -7.10891,-14.6875 -0.47639,0 -3.6754,6.60938 -7.10891,14.6875 -3.47193,8.16851 -6.97436,14.6875 -7.89109,14.6875 -0.91673,0 -4.41916,-6.51899 -7.89109,-14.6875 -3.43351,-8.07812 -6.63252,-14.6875 -7.10891,-14.6875 -0.47639,0 -3.6754,6.60938 -7.10891,14.6875 -3.46711,8.15719 -6.97485,14.6875 -7.88933,14.6875 -0.90561,0 -3.19844,-3.65625 -5.09515,-8.125 l -3.44856,-8.125 -46.35403,-0.32771 -46.35402,-0.32772 0,27.58449 0,27.58449 -6.25,2.59737 c -3.4375,1.42857 -6.25,2.96015 -6.25,3.40353 0,0.44339 6.60938,3.621354 14.6875,7.062144 8.60519,3.6653 14.6875,6.96842 14.6875,7.97637 0,1.00869 -6.0759,4.30286 -14.6875,7.96313 -8.07812,3.43351 -14.6875,6.59415 -14.6875,7.02362 0,0.42949 6.60938,3.59609 14.6875,7.03688 8.60519,3.6653 14.6875,6.96842 14.6875,7.97637 0,1.00869 -6.0759,4.30286 -14.6875,7.96313 -8.07812,3.43351 -14.6875,6.59415 -14.6875,7.02362 0,0.42949 6.56297,3.5775 14.58439,6.99559 8.02141,3.41809 14.81285,6.90151 15.09207,7.74095 0.29993,0.90163 -3.11094,3.14426 -8.33437,5.47985 l -8.84209,3.95361 0,26.08265 0,26.08264 30,0 30,0 0,30 0,30 28.75,0 28.75,0 0,-50 z m -64.07958,-89.99095 c -5.97285,-4.69824 -7.44526,-21.01725 -2.72067,-30.1536 1.91671,-3.7065 4.11744,-4.85545 9.30025,-4.85545 7.4215,0 10.29297,3.38962 11.88931,14.03471 1.87369,12.49468 -3.68486,23.46529 -11.88931,23.46529 -1.87708,0 -4.83788,-1.12093 -6.57957,-2.49095 z m 10.8837,-5.28719 c 1.28072,-1.82849 1.94588,-5.57897 1.94588,-10.97186 0,-8.92363 -2.1938,-13.75 -6.25,-13.75 -4.0562,0 -6.25,4.82637 -6.25,13.75 0,8.92363 2.1938,13.75 6.25,13.75 1.29704,0 3.23389,-1.25016 4.30412,-2.77814 z m -33.05412,-5.97186 0,-12.5 -3.75,0 c -5.22326,0 -5.30448,-4.3766 -0.1005,-5.41739 2.16636,-0.43327 3.97855,-1.76674 4.45924,-3.28125 0.44537,-1.40325 1.61561,-2.55136 2.60053,-2.55136 1.47202,0 1.79077,3.22614 1.79077,18.125 0,17.29166 -0.11488,18.125 -2.5,18.125 -2.33334,0 -2.5,-0.83334 -2.5,-12.5 z m 46.25,-6.25 c 0,-17.91666 0.11112,-18.75 2.5,-18.75 2.26511,0 2.50511,0.85147 2.55442,9.0625 l 0.0544,9.0625 8.43799,-9.17039 c 7.15844,-7.77977 8.96678,-9.10663 11.92519,-8.75 l 3.48721,0.42039 -6.94088,7.6538 -6.94088,7.65381 7.52402,10.78369 7.52404,10.7837 -3.66126,0 c -3.17572,0 -4.46875,-1.23481 -9.75027,-9.31128 l -6.089,-9.31127 -2.76755,3.37377 c -1.97262,2.40473 -2.78045,5.0792 -2.8125,9.31128 -0.0385,5.08919 -0.40213,5.9375 -2.54495,5.9375 -2.38888,0 -2.5,-0.83334 -2.5,-18.75 z m 55.92042,-42.490954 c -5.97285,-4.69824 -7.44526,-21.01724 -2.72067,-30.1536 1.91671,-3.7065 4.11744,-4.85545 9.30025,-4.85545 7.4215,0 10.29297,3.38963 11.88931,14.03471 1.87369,12.49468 -3.68486,23.46529 -11.88931,23.46529 -1.87708,0 -4.83788,-1.12093 -6.57957,-2.49095 z m 10.8837,-5.28718 c 1.28072,-1.82849 1.94588,-5.57898 1.94588,-10.97187 0,-8.92363 -2.1938,-13.75 -6.25,-13.75 -4.0562,0 -6.25,4.82637 -6.25,13.75 0,8.92363 2.1938,13.75 6.25,13.75 1.29704,0 3.23389,-1.25016 4.30412,-2.77813 z m 16.6163,5.28718 c -5.97285,-4.69824 -7.44526,-21.01724 -2.72067,-30.1536 1.91671,-3.7065 4.11744,-4.85545 9.30025,-4.85545 7.4215,0 10.29297,3.38963 11.88931,14.03471 1.87369,12.49468 -3.68486,23.46529 -11.88931,23.46529 -1.87708,0 -4.83788,-1.12093 -6.57957,-2.49095 z m 10.8837,-5.28718 c 1.28072,-1.82849 1.94588,-5.57898 1.94588,-10.97187 0,-8.92363 -2.1938,-13.75 -6.25,-13.75 -4.0562,0 -6.25,4.82637 -6.25,13.75 0,8.92363 2.1938,13.75 6.25,13.75 1.29704,0 3.23389,-1.25016 4.30412,-2.77813 z m -60.55412,-5.97187 0,-12.5 -3.75,0 c -5.22326,0 -5.30448,-4.3766 -0.1005,-5.41739 2.16636,-0.43328 3.97855,-1.76674 4.45924,-3.28125 0.44533,-1.40325 1.61557,-2.55136 2.6005,-2.55136 1.47201,0 1.79076,3.22614 1.79076,18.125 0,17.29166 -0.11488,18.125 -2.5,18.125 -2.33334,0 -2.5,-0.83334 -2.5,-12.5 z m 206.25,92.500004 0,-18.75 -58.75,0 -58.75,0 0,18.75 0,18.75 58.75,0 58.75,0 0,-18.75 z m 320,-20 0,-38.75 -58.75,0 -58.75,0 0,38.75 0,38.75 58.75,0 58.75,0 0,-38.75 z m -93.84615,17.59615 c -2.00963,-2.00961 -3.65385,-4.54086 -3.65385,-5.625 0,-2.97924 3.72426,-2.36398 6.98447,1.15385 5.22134,5.63392 11.76553,2.88831 11.76553,-4.93623 0,-6.27211 -4.93331,-9.16118 -10.61235,-6.21486 -1.88289,0.97685 -4.26674,1.77609 -5.29746,1.77609 -1.89093,0 -1.81083,-2.62119 0.48702,-15.9375 l 0.70102,-4.0625 9.23588,0 c 8.32378,0 9.23589,0.24074 9.23589,2.43762 0,2.09074 -1.0228,2.49097 -7.1875,2.8125 -6.88709,0.3592 -7.20468,0.52525 -7.59849,3.9726 -0.37302,3.26537 -0.12687,3.52643 2.66433,2.82588 7.20205,-1.8076 14.62166,4.38597 14.62166,12.20551 0,11.56908 -13.36394,17.57426 -21.34615,9.59204 z m 30.25626,-15.74599 c -3.52556,-10.05675 -6.41011,-18.52466 -6.41011,-18.81757 0,-0.29293 1.36832,-0.53259 3.04071,-0.53259 2.7702,0 3.46113,1.27737 7.76645,14.35855 2.59917,7.8972 5.05774,13.94407 5.4635,13.4375 0.40577,-0.50658 2.64657,-6.96793 4.97957,-14.35855 3.82321,-12.11145 4.53422,-13.4375 7.20502,-13.4375 2.25377,0 2.79668,0.52373 2.2676,2.1875 -0.3826,1.20312 -3.13849,9.5 -6.1242,18.4375 -4.93335,14.76764 -5.71819,16.28467 -8.60349,16.63007 -3.03086,0.36284 -3.46582,-0.44967 -9.58505,-17.90491 z M 236.15348,674.73363 c -5.97285,-4.69824 -7.44527,-21.01725 -2.72068,-30.1536 1.91671,-3.7065 4.11744,-4.85545 9.30025,-4.85545 7.4215,0 10.29297,3.38962 11.88931,14.03471 1.87369,12.49468 -3.68486,23.46529 -11.88931,23.46529 -1.87708,0 -4.83788,-1.12093 -6.57957,-2.49095 z m 10.8837,-5.28719 c 1.28071,-1.82849 1.94587,-5.57897 1.94587,-10.97186 0,-8.92363 -2.1938,-13.75 -6.25,-13.75 -4.0562,0 -6.25,4.82637 -6.25,13.75 0,8.92363 2.1938,13.75 6.25,13.75 1.29704,0 3.23389,-1.25016 4.30412,-2.77814 z m 41.94587,5.27814 c -2.12962,-2.12963 -2.5,-4.16666 -2.5,-13.75 0,-10.41666 0.18519,-11.25 2.5,-11.25 2.27196,0 2.5,0.83334 2.5,9.13609 0,10.39396 1.64864,13.8295 6.32004,13.17012 3.76855,-0.53194 6.00791,-6.30267 6.10941,-15.74371 0.0614,-5.70565 0.39697,-6.5625 2.57055,-6.5625 2.34127,0 2.5,0.83334 2.5,13.125 0,12.29166 -0.15873,13.125 -2.5,13.125 -1.375,0 -2.5,-0.5944 -2.5,-1.32088 0,-0.74037 -1.22096,-0.46568 -2.77814,0.625 -3.82834,2.68147 -9.23122,2.43652 -12.22186,-0.55412 z m -70,-1.875 c 0,-2.5 0.625,-3.125 3.125,-3.125 2.5,0 3.125,0.625 3.125,3.125 0,2.5 -0.625,3.125 -3.125,3.125 -2.5,0 -3.125,-0.625 -3.125,-3.125 z m 50,-9.375 0,-12.5 -3.75,0 c -5.22326,0 -5.30448,-4.3766 -0.1005,-5.41739 2.16636,-0.43327 3.97855,-1.76674 4.45924,-3.28125 0.44537,-1.40325 1.61561,-2.55136 2.60053,-2.55136 1.47202,0 1.79077,3.22614 1.79077,18.125 0,17.29166 -0.11488,18.125 -2.5,18.125 -2.33334,0 -2.5,-0.83334 -2.5,-12.5 z m -67.5,-68.75 c -2.12963,-2.12963 -2.5,-4.16666 -2.5,-13.75 0,-10.41666 0.18519,-11.25 2.5,-11.25 2.27196,0 2.5,0.83334 2.5,9.13609 0,10.39396 1.64864,13.8295 6.32004,13.17012 3.76855,-0.53194 6.00791,-6.30267 6.10941,-15.74371 0.0614,-5.70565 0.39697,-6.5625 2.57055,-6.5625 2.34127,0 2.5,0.83334 2.5,13.125 0,12.29166 -0.15873,13.125 -2.5,13.125 -1.375,0 -2.5,-0.5944 -2.5,-1.32088 0,-0.74037 -1.22096,-0.46568 -2.77814,0.625 -3.82834,2.68147 -9.23122,2.43652 -12.22186,-0.55412 z m -42.5,-1.875 c 0,-2.5 0.625,-3.125 3.125,-3.125 2.5,0 3.125,0.625 3.125,3.125 0,2.5 -0.625,3.125 -3.125,3.125 -2.5,0 -3.125,-0.625 -3.125,-3.125 z m 22.5,-9.375 0,-12.5 -3.75,0 c -5.22326,0 -5.30448,-4.3766 -0.1005,-5.41739 2.16636,-0.43327 3.97855,-1.76674 4.45924,-3.28125 0.44537,-1.40325 1.61561,-2.55136 2.60053,-2.55136 1.47202,0 1.79077,3.22614 1.79077,18.125 0,17.29166 -0.11488,18.125 -2.5,18.125 -2.33334,0 -2.5,-0.83334 -2.5,-12.5 z m 46.25,-6.25 0,-18.75 13.125,0 c 12.29166,0 13.125,0.15872 13.125,2.5 0,2.29166 -0.83334,2.5 -10,2.5 l -10,0 0,5.625 0,5.625 8.75,0 c 7.91666,0 8.75,0.2381 8.75,2.5 0,2.2619 -0.83334,2.5 -8.75,2.5 l -8.75,0 0,8.125 c 0,7.83334 -0.11213,8.125 -3.125,8.125 l -3.125,0 0,-18.75 z m -196.249996,-225.625 0,-4.375 -7.5,0 c -6.94637,0 -7.49952,-0.20761 -7.49351,-2.8125 0.009,-3.93954 14.93013,-24.6875 17.75417,-24.6875 1.98657,0 2.23934,1.26985 2.23934,11.25 0,10.41666 0.18518,11.25 2.5,11.25 1.66666,0 2.5,0.83334 2.5,2.5 0,1.66666 -0.83334,2.5 -2.5,2.5 -2.02381,0 -2.5,0.83334 -2.5,4.375 0,3.54166 -0.47619,4.375 -2.5,4.375 -2.02381,0 -2.5,-0.83334 -2.5,-4.375 z m 0,-15.875 c 0,-3.575 -0.45291,-5.96562 -1.00647,-5.3125 -2.51287,2.96487 -7.74353,10.46556 -7.74353,11.1041 0,0.38962 1.96875,0.7084 4.375,0.7084 l 4.375,0 0,-6.5 z m 15,17.125 c 0,-2.5 0.625,-3.125 3.125,-3.125 2.5,0 3.125,0.625 3.125,3.125 0,2.5 -0.625,3.125 -3.125,3.125 -2.5,0 -3.125,-0.625 -3.125,-3.125 z m 16.25,2.69569 c 0,-3.69694 10.1666,-26.25358 12.47623,-27.681 3.3022,-2.04087 0.46695,-3.13969 -8.10123,-3.13969 -8.54167,0 -9.375,-0.22222 -9.375,-2.5 0,-2.33334 0.83333,-2.5 12.5,-2.5 14.92565,0 15.29228,0.59544 7.64857,12.42174 -2.66828,4.12836 -5.84552,11.17858 -7.06052,15.66719 -1.9241,7.10818 -2.58834,8.16107 -5.14858,8.16107 -1.61671,0 -2.93947,-0.19319 -2.93947,-0.42931 z m -23.75,-78.32069 0,-18.75 11.875,0 c 10.20833,0 12.22587,0.35087 14.375,2.5 2.94026,2.94026 3.38235,10.81549 0.80502,14.3402 -1.4239,1.94729 -1.42513,2.83514 -0.008,5.55141 0.928,1.77836 1.69074,5.23026 1.69498,7.67089 0.004,2.44062 0.6827,5.1125 1.5077,5.9375 1.16666,1.16666 0.62369,1.5 -2.44336,1.5 -4.13358,0 -4.44943,-0.63515 -5.59453,-11.25 -0.31477,-2.91792 -0.85479,-3.14966 -8.14961,-3.49715 l -7.8125,-0.37214 0,7.55964 c 1e-4,7.23029 -0.13605,7.55965 -3.1249,7.55965 l -3.125,0 0,-18.75 z m 19.18666,-2.4284 c 3.73002,-1.41815 5.2033,-5.29016 3.33861,-8.77439 -1.13775,-2.1259 -2.59648,-2.54721 -8.81925,-2.54721 l -7.45602,0 0,6.25 0,6.25 4.91862,0 c 2.70525,0 6.31336,-0.53027 8.01804,-1.1784 z m 14.56334,19.26325 c 0,-5.27765 3.76558,-10.45366 10.55108,-14.50306 10.09831,-6.0264 11.2045,-13.69702 2.10559,-14.6007 -3.51244,-0.34887 -4.17923,0.11587 -5.82821,4.0625 -2.33532,5.58918 -5.57846,5.96685 -5.57846,0.6496 0,-5.88492 4.82355,-9.94319 11.81818,-9.94319 6.30128,0 10.04786,2.66391 11.41662,8.11748 1.36303,5.43071 -1.70886,10.28388 -9.50825,15.02176 -10.81204,6.56797 -10.68124,8.11076 0.68768,8.11076 8.50243,0 9.33577,0.22315 9.33577,2.5 0,2.33334 -0.83334,2.5 -12.5,2.5 -10.39425,0 -12.5,-0.32263 -12.5,-1.91515 z m 8.0921,-158.08485 c 0,-8.47748 0.29441,-9.91755 1.89145,-9.25193 7.14041,2.97608 15.66456,5.45348 23.453946,6.8165 4.98438,0.8722 9.0625,1.96814 9.0625,2.43543 0,0.46729 -4.07812,1.56323 -9.0625,2.43542 -7.789386,1.36303 -16.313536,3.84043 -23.453946,6.81651 -1.59704,0.66562 -1.89145,-0.77446 -1.89145,-9.25193 z m -21.8421,-58.750004 0,-18.75 11.875,0 c 10.20833,0 12.22587,0.35088 14.375,2.5 2.94026,2.94026 3.38235,10.81548 0.80502,14.3402 -1.4239,1.94729 -1.42513,2.83514 -0.008,5.55141 0.928,1.77836 1.69074,5.23026 1.69498,7.67089 0.004,2.44062 0.6827,5.1125 1.5077,5.9375 1.16666,1.16666 0.62369,1.5 -2.44336,1.5 -4.13358,0 -4.44943,-0.63515 -5.59453,-11.25 -0.31472,-2.91793 -0.85474,-3.14966 -8.14956,-3.49715 l -7.8125,-0.37214 0,7.55964 c 5e-5,7.23029 -0.1361,7.55965 -3.12495,7.55965 l -3.125,0 0,-18.75 z m 19.18666,-2.4284 c 3.73002,-1.41815 5.2033,-5.29017 3.33861,-8.77438 -1.13775,-2.1259 -2.59648,-2.54722 -8.81925,-2.54722 l -7.45602,0 0,6.25 0,6.25 4.91862,0 c 2.70525,0 6.31336,-0.53028 8.01804,-1.1784 z m 25.813336,8.6784 0,-12.5 -3.75,0 c -5.223256,0 -5.304476,-4.3766 -0.10054,-5.41739 2.16637,-0.43328 3.97855,-1.76674 4.45923,-3.28125 0.44538,-1.40325 1.61562,-2.55136 2.60054,-2.55136 1.47202,0 1.79077,3.22614 1.79077,18.125 0,17.29166 -0.11494,18.125 -2.5,18.125 -2.33334,0 -2.5,-0.83334 -2.5,-12.5 z"
     id="path8070"
     inkscape:connector-curvature="0" />
</svg>
