<svg width="327" height="692" xmlns="http://www.w3.org/2000/svg" xmlns:xlink="http://www.w3.org/1999/xlink"><defs><path id="a" d="M0 0h327v692H0z"/><linearGradient x1="52.77%" y1="-22.643%" x2="47.93%" y2="95.334%" id="c"><stop stop-color="#E1E1E1" offset="0%"/><stop stop-color="#FFF" offset="100%"/></linearGradient><linearGradient x1="6.371%" y1="103.744%" x2="46.399%" y2="21.924%" id="d"><stop stop-color="#DFDFDF" offset="0%"/><stop stop-color="#FFF" offset="100%"/></linearGradient><linearGradient x1="44.247%" y1="47.346%" x2="47.93%" y2="95.334%" id="e"><stop stop-color="#DFDFDF" offset="0%"/><stop stop-color="#FFF" offset="100%"/></linearGradient><linearGradient x1="46.399%" y1="21.924%" x2="28.459%" y2="91.685%" id="f"><stop stop-color="#DFDFDF" offset="0%"/><stop stop-color="#FFF" offset="100%"/></linearGradient><linearGradient x1="34.813%" y1="38.425%" x2="47.93%" y2="95.334%" id="g"><stop stop-color="#DFDFDF" offset="0%"/><stop stop-color="#FFF" offset="100%"/></linearGradient><linearGradient x1="30.079%" y1="94.303%" x2="69.923%" y2="16.176%" id="h"><stop stop-color="#DFDFDF" offset="0%"/><stop stop-color="#FFF" offset="100%"/></linearGradient></defs><g fill="none" fill-rule="evenodd"><mask id="b" fill="#fff"><use xlink:href="#a"/></mask><g mask="url(#b)" fill-rule="nonzero"><path fill="url(#c)" d="M345.117 490.222l346.161-202.427L342.53 93 0 292.962z" transform="translate(-251 484)"/><path fill="url(#d)" d="M345.117 397.222l346.161-202.427L342.53 0 0 199.962z" transform="translate(-251 484)"/></g><g mask="url(#b)" fill-rule="nonzero"><path fill="url(#e)" d="M345.117 490.222l346.161-202.427L342.53 93 0 292.962z" transform="translate(-251 308)"/><path fill="url(#f)" d="M345.117 397.222l346.161-202.427L342.53 0 0 199.962z" transform="translate(-251 308)"/></g><g mask="url(#b)" fill-rule="nonzero"><path fill="url(#e)" d="M345.117 490.222l346.161-202.427L342.53 93 0 292.962z" transform="translate(-83 212)"/><path fill="url(#f)" d="M345.117 397.222l346.161-202.427L342.53 0 0 199.962z" transform="translate(-83 212)"/></g><g mask="url(#b)" fill-rule="nonzero"><path fill="url(#g)" d="M345.117 490.222l346.161-202.427L342.53 93 0 292.962z" transform="translate(-235 108)"/><path fill="url(#h)" d="M345.117 397.222l346.161-202.427L342.53 0 0 199.962z" transform="translate(-235 108)"/></g><g mask="url(#b)" fill-rule="nonzero"><path fill="url(#e)" d="M345.117 490.222l346.161-202.427L342.53 93 0 292.962z" transform="translate(-83 -148)"/><path fill="url(#f)" d="M345.117 397.222l346.161-202.427L342.53 0 0 199.962z" transform="translate(-83 -148)"/></g><path fill="url(#f)" fill-rule="nonzero" mask="url(#b)" d="M118.117 441.222l346.161-202.427L115.53 44-227 243.962z"/><path fill="url(#e)" fill-rule="nonzero" mask="url(#b)" d="M286.117 438.222l346.161-202.427L283.53 41-59 240.962z"/><path fill="url(#f)" fill-rule="nonzero" mask="url(#b)" d="M286.117 345.222l346.161-202.427L283.53-52-59 147.962z"/><path fill="url(#f)" fill-rule="nonzero" mask="url(#b)" d="M86.117 185.222L432.278-17.205 83.53-212-259-12.038z"/><path fill="url(#e)" fill-rule="nonzero" mask="url(#b)" d="M254.117 182.222L600.278-20.205 251.53-215-91-15.038z"/><path fill="url(#f)" fill-rule="nonzero" mask="url(#b)" d="M254.117 89.222l346.161-202.427L251.53-308-91-108.038z"/></g></svg>