<?xml version="1.0" encoding="UTF-8" standalone="no"?>
<svg xmlns="http://www.w3.org/2000/svg" xmlns:xlink="http://www.w3.org/1999/xlink"  version="1.2" baseProfile="tiny">
<title>pyqtgraph SVG export</title>
<desc>Generated with Qt and pyqtgraph</desc>
<defs>
</defs>
<g fill="none" fill-rule="evenodd" id="PlotItem_1" stroke="black" stroke-linecap="square" stroke-linejoin="bevel" stroke-width="1">
    <g fill="none" fill-rule="evenodd" id="AxisItem_1" stroke="black" stroke-linecap="square" stroke-linejoin="bevel" stroke-width="1">
        <g fill="none" font-family="Ubuntu" font-size="14.6667" font-style="normal" font-weight="400" stroke="#969696" stroke-linecap="square" stroke-linejoin="bevel" stroke-opacity="1" stroke-width="1">
            <polyline fill="none" points="60.8125,435.0 730.0005,435.0" vector-effect="non-scaling-stroke"/>
        </g>
        <g fill="none" font-family="Ubuntu" font-size="14.6667" font-style="normal" font-weight="400" stroke="#969696" stroke-linecap="square" stroke-linejoin="bevel" stroke-opacity="0.666667" stroke-width="1">
            <polyline fill="none" points="61.3125,1.0 61.3125,435.0" vector-effect="non-scaling-stroke"/>
            <polyline fill="none" points="715.4545,1.0 715.4545,435.0" vector-effect="non-scaling-stroke"/>
        </g>
        <g fill="none" font-family="Ubuntu" font-size="14.6667" font-style="normal" font-weight="400" stroke="#969696" stroke-linecap="square" stroke-linejoin="bevel" stroke-opacity="0.329412" stroke-width="1">
            <polyline fill="none" points="192.1405,1.0 192.1405,435.0" vector-effect="non-scaling-stroke"/>
            <polyline fill="none" points="322.9695,1.0 322.9695,435.0" vector-effect="non-scaling-stroke"/>
            <polyline fill="none" points="453.7975,1.0 453.7975,435.0" vector-effect="non-scaling-stroke"/>
            <polyline fill="none" points="584.6265,1.0 584.6265,435.0" vector-effect="non-scaling-stroke"/>
        </g>
        <g fill="none" font-family="Ubuntu" font-size="14.6667" font-style="normal" font-weight="400" stroke="#969696" stroke-linecap="square" stroke-linejoin="bevel" stroke-opacity="0.219608" stroke-width="1">
            <polyline fill="none" points="126.7267,1.0 126.7267,435.0" vector-effect="non-scaling-stroke"/>
            <polyline fill="none" points="257.5555,1.0 257.5555,435.0" vector-effect="non-scaling-stroke"/>
            <polyline fill="none" points="388.3835,1.0 388.3835,435.0" vector-effect="non-scaling-stroke"/>
            <polyline fill="none" points="519.2125,1.0 519.2125,435.0" vector-effect="non-scaling-stroke"/>
            <polyline fill="none" points="650.0405,1.0 650.0405,435.0" vector-effect="non-scaling-stroke"/>
        </g>
        <g fill="none" font-family="Ubuntu" font-size="14.6667" font-style="normal" font-weight="400" stroke="#969696" stroke-linecap="square" stroke-linejoin="bevel" stroke-opacity="1" stroke-width="1" transform="matrix(1,0,0,1,61.3125,435)">
            <text fill="#969696" fill-opacity="1" font-family="Ubuntu, sans-serif" font-size="14.6667" font-style="normal" font-weight="400" stroke="none" x="-4.21875" xml:space="preserve" y="14">0</text>
            <text fill="#969696" fill-opacity="1" font-family="Ubuntu, sans-serif" font-size="14.6667" font-style="normal" font-weight="400" stroke="none" x="637.234" xml:space="preserve" y="14">1000</text>
            <text fill="#969696" fill-opacity="1" font-family="Ubuntu, sans-serif" font-size="14.6667" font-style="normal" font-weight="400" stroke="none" x="118.141" xml:space="preserve" y="14">200</text>
            <text fill="#969696" fill-opacity="1" font-family="Ubuntu, sans-serif" font-size="14.6667" font-style="normal" font-weight="400" stroke="none" x="248.969" xml:space="preserve" y="14">400</text>
            <text fill="#969696" fill-opacity="1" font-family="Ubuntu, sans-serif" font-size="14.6667" font-style="normal" font-weight="400" stroke="none" x="379.797" xml:space="preserve" y="14">600</text>
            <text fill="#969696" fill-opacity="1" font-family="Ubuntu, sans-serif" font-size="14.6667" font-style="normal" font-weight="400" stroke="none" x="510.625" xml:space="preserve" y="14">800</text>
        </g>
        <g fill="none" fill-rule="evenodd" id="QGraphicsTextItem_1" stroke="black" stroke-linecap="square" stroke-linejoin="bevel" stroke-width="1">
            


            


            <g fill="none" font-family="Ubuntu" font-size="14.6667" font-style="normal" font-weight="400" stroke="#969696" stroke-linecap="square" stroke-linejoin="bevel" stroke-opacity="1" stroke-width="1" transform="matrix(1,0,0,1,331.812,455)">
                <text fill="#969696" fill-opacity="1" font-family="Ubuntu, sans-serif" font-size="14.6667" font-style="normal" font-weight="400" stroke="none" x="4" xml:space="preserve" y="18">Channel Number </text>
            </g>
            


            

        </g>
    </g>
    <g fill="none" fill-rule="evenodd" id="AxisItem_2" stroke="black" stroke-linecap="square" stroke-linejoin="bevel" stroke-width="1">
        <g fill="none" font-family="Ubuntu" font-size="14.6667" font-style="normal" font-weight="400" stroke="#969696" stroke-linecap="square" stroke-linejoin="bevel" stroke-opacity="1" stroke-width="1">
            <polyline fill="none" points="60.8125,1.0 60.8125,435.0" vector-effect="non-scaling-stroke"/>
        </g>
        <g fill="none" font-family="Ubuntu" font-size="14.6667" font-style="normal" font-weight="400" stroke="#969696" stroke-linecap="square" stroke-linejoin="bevel" stroke-opacity="0.329412" stroke-width="1">
            <polyline fill="none" points="730.5,199.169 61.3125,199.169" vector-effect="non-scaling-stroke"/>
        </g>
        <g fill="none" font-family="Ubuntu" font-size="14.6667" font-style="normal" font-weight="400" stroke="#969696" stroke-linecap="square" stroke-linejoin="bevel" stroke-opacity="0.219608" stroke-width="1">
            <polyline fill="none" points="730.5,387.834 61.3125,387.834" vector-effect="non-scaling-stroke"/>
            <polyline fill="none" points="730.5,340.668 61.3125,340.668" vector-effect="non-scaling-stroke"/>
            <polyline fill="none" points="730.5,293.501 61.3125,293.501" vector-effect="non-scaling-stroke"/>
            <polyline fill="none" points="730.5,246.335 61.3125,246.335" vector-effect="non-scaling-stroke"/>
            <polyline fill="none" points="730.5,152.003 61.3125,152.003" vector-effect="non-scaling-stroke"/>
            <polyline fill="none" points="730.5,104.836 61.3125,104.836" vector-effect="non-scaling-stroke"/>
            <polyline fill="none" points="730.5,57.6702 61.3125,57.6702" vector-effect="non-scaling-stroke"/>
            <polyline fill="none" points="730.5,10.50399 61.3125,10.50399" vector-effect="non-scaling-stroke"/>
        </g>
        <g fill="none" font-family="Ubuntu" font-size="14.6667" font-style="normal" font-weight="400" stroke="#969696" stroke-linecap="square" stroke-linejoin="bevel" stroke-opacity="1" stroke-width="1" transform="matrix(1,0,0,1,1.5,1)">
            <text fill="#969696" fill-opacity="1" font-family="Ubuntu, sans-serif" font-size="14.6667" font-style="normal" font-weight="400" stroke="none" x="21" xml:space="preserve" y="203.359">1000</text>
            <text fill="#969696" fill-opacity="1" font-family="Ubuntu, sans-serif" font-size="14.6667" font-style="normal" font-weight="400" stroke="none" x="29.4531" xml:space="preserve" y="392.031">200</text>
            <text fill="#969696" fill-opacity="1" font-family="Ubuntu, sans-serif" font-size="14.6667" font-style="normal" font-weight="400" stroke="none" x="29.4531" xml:space="preserve" y="344.859">400</text>
            <text fill="#969696" fill-opacity="1" font-family="Ubuntu, sans-serif" font-size="14.6667" font-style="normal" font-weight="400" stroke="none" x="29.4531" xml:space="preserve" y="297.688">600</text>
            <text fill="#969696" fill-opacity="1" font-family="Ubuntu, sans-serif" font-size="14.6667" font-style="normal" font-weight="400" stroke="none" x="29.4531" xml:space="preserve" y="250.531">800</text>
            <text fill="#969696" fill-opacity="1" font-family="Ubuntu, sans-serif" font-size="14.6667" font-style="normal" font-weight="400" stroke="none" x="21" xml:space="preserve" y="156.188">1200</text>
            <text fill="#969696" fill-opacity="1" font-family="Ubuntu, sans-serif" font-size="14.6667" font-style="normal" font-weight="400" stroke="none" x="21" xml:space="preserve" y="109.031">1400</text>
            <text fill="#969696" fill-opacity="1" font-family="Ubuntu, sans-serif" font-size="14.6667" font-style="normal" font-weight="400" stroke="none" x="21" xml:space="preserve" y="61.8594">1600</text>
            <text fill="#969696" fill-opacity="1" font-family="Ubuntu, sans-serif" font-size="14.6667" font-style="normal" font-weight="400" stroke="none" x="21" xml:space="preserve" y="14.7031">1800</text>
        </g>
        <g fill="none" fill-rule="evenodd" id="QGraphicsTextItem_2" stroke="black" stroke-linecap="square" stroke-linejoin="bevel" stroke-width="1">
            


            


            <g fill="none" font-family="Ubuntu" font-size="14.6667" font-style="normal" font-weight="400" stroke="#969696" stroke-linecap="square" stroke-linejoin="bevel" stroke-opacity="1" stroke-width="1" transform="matrix(0,-1,1,0,-4,244)">
                <text fill="#969696" fill-opacity="1" font-family="Ubuntu, sans-serif" font-size="14.6667" font-style="normal" font-weight="400" stroke="none" x="4" xml:space="preserve" y="18">Count </text>
            </g>
            


            

        </g>
    </g>
    <g fill="none" fill-rule="evenodd" id="ViewBox_1" stroke="black" stroke-linecap="square" stroke-linejoin="bevel" stroke-width="1">
        <g fill="none" font-family="Ubuntu" font-size="14.6667" font-style="normal" font-weight="400" stroke="none">
            <path d="M60.8125,1.0 L730.0005,1.0 L730.0005,435.0 L60.8125,435.0 L60.8125,1.0 " fill-rule="evenodd" vector-effect="non-scaling-stroke"/>
        </g>
        <clipPath id="ViewBox_1_clip">
            <path d="M60.8125,1.0 L730.0,1.0 L730.0,435.0 L60.8125,435.0 L60.8125,1.0 " fill-rule="evenodd" vector-effect="non-scaling-stroke"/>
        </clipPath>
        <g clip-path="url(#ViewBox_1_clip)">
            <g fill="none" fill-rule="evenodd" id="ChildGroup_1" stroke="black" stroke-linecap="square" stroke-linejoin="bevel" stroke-width="1">
                <g fill="none" fill-rule="evenodd" id="PlotCurveItem_1" stroke="black" stroke-linecap="square" stroke-linejoin="bevel" stroke-width="1">
                    <g fill="#dc6116" fill-opacity="0.509804" font-family="Ubuntu" font-size="14.6667" font-style="normal" font-weight="400" stroke="none">
                        <path d="M60.8125,435.0 L60.8125,435.0 L61.466642,435.0 L61.466642,435.0 L62.120784,435.0 L62.120784,435.0 L62.774926,435.0 L62.774926,435.0 L63.429068,435.0 L63.429068,435.0 L64.08321,435.0 L64.08321,435.0 L64.737352,435.0 L64.737352,435.0 L65.391494,435.0 L65.391494,435.0 L66.045636,435.0 L66.045636,435.0 L66.699778,435.0 L66.699778,435.0 L67.35392,435.0 L67.35392,435.0 L68.008062,435.0 L68.008062,435.0 L68.662204,435.0 L68.662204,435.0 L69.316346,435.0 L69.316346,435.0 L69.970488,435.0 L69.970488,435.0 L70.62463,435.0 L70.62463,435.0 L71.278772,435.0 L71.278772,435.0 L71.932914,435.0 L71.932914,435.0 L72.587056,435.0 L72.587056,435.0 L73.241198,435.0 L73.241198,435.0 L73.89534,435.0 L73.89534,435.0 L74.549482,435.0 L74.549482,435.0 L75.203624,435.0 L75.203624,435.0 L75.857766,435.0 L75.857766,435.0 L76.511908,435.0 L76.511908,435.0 L77.16605,435.0 L77.16605,435.0 L77.820192,435.0 L77.820192,435.0 L78.474334,435.0 L78.474334,435.0 L79.128476,435.0 L79.128476,435.0 L79.782618,435.0 L79.782618,435.0 L80.43676,435.0 L80.43676,435.0 L81.090902,435.0 L81.090902,435.0 L81.745044,435.0 L81.745044,435.0 L82.399186,435.0 L82.399186,435.0 L83.053328,435.0 L83.053328,435.0 L83.70747,435.0 L83.70747,435.0 L84.361612,435.0 L84.361612,435.0 L85.015754,435.0 L85.015754,435.0 L85.669896,435.0 L85.669896,435.0 L86.324038,435.0 L86.324038,435.0 L86.97818,435.0 L86.97818,435.0 L87.632322,435.0 L87.632322,435.0 L88.286464,435.0 L88.286464,435.0 L88.940606,435.0 L88.940606,435.0 L89.594748,435.0 L89.594748,435.0 L90.24889,435.0 L90.24889,435.0 L90.903032,435.0 L90.903032,435.0 L91.557174,435.0 L91.557174,435.0 L92.211316,435.0 L92.211316,435.0 L92.865458,435.0 L92.865458,435.0 L93.5196,435.0 L93.5196,435.0 L94.173742,435.0 L94.173742,435.0 L94.827884,435.0 L94.827884,435.0 L95.482026,435.0 L95.482026,435.0 L96.136168,435.0 L96.136168,435.0 L96.79031,435.0 L96.79031,435.0 L97.444452,435.0 L97.444452,435.0 L98.098594,435.0 L98.098594,435.0 L98.752736,435.0 L98.752736,435.0 L99.406878,435.0 L99.406878,435.0 L100.06102,435.0 L100.06102,435.0 L100.715162,435.0 L100.715162,434.292507 L101.369304,434.292507 L101.369304,433.585014 L102.023446,433.585014 L102.023446,434.764169 L102.677588,434.764169 L102.677588,434.528338 L103.33173,434.528338 L103.33173,435.0 L103.985872,435.0 L103.985872,434.764169 L104.640014,434.764169 L104.640014,434.056676 L105.294156,434.056676 L105.294156,434.528338 L105.948298,434.528338 L105.948298,434.528338 L106.60244,434.528338 L106.60244,435.0 L107.256582,435.0 L107.256582,434.528338 L107.910724,434.528338 L107.910724,434.764169 L108.564866,434.764169 L108.564866,435.0 L109.219008,435.0 L109.219008,434.764169 L109.87315,434.764169 L109.87315,434.764169 L110.527292,434.764169 L110.527292,435.0 L111.181434,435.0 L111.181434,434.764169 L111.835576,434.764169 L111.835576,435.0 L112.489718,435.0 L112.489718,435.0 L113.14386,435.0 L113.14386,434.764169 L113.798002,434.764169 L113.798002,435.0 L114.452144,435.0 L114.452144,434.764169 L115.106286,434.764169 L115.106286,434.528338 L115.760428,434.528338 L115.760428,434.764169 L116.41457,434.764169 L116.41457,434.528338 L117.068712,434.528338 L117.068712,434.764169 L117.722854,434.764169 L117.722854,435.0 L118.376996,435.0 L118.376996,435.0 L119.031138,435.0 L119.031138,434.764169 L119.68528,434.764169 L119.68528,435.0 L120.339422,435.0 L120.339422,435.0 L120.993564,435.0 L120.993564,434.764169 L121.647706,434.764169 L121.647706,434.764169 L122.301848,434.764169 L122.301848,434.764169 L122.95599,434.764169 L122.95599,434.764169 L123.610132,434.764169 L123.610132,435.0 L124.264274,435.0 L124.264274,435.0 L124.918416,435.0 L124.918416,433.820845 L125.572558,433.820845 L125.572558,434.528338 L126.2267,434.528338 L126.2267,434.764169 L126.880842,434.764169 L126.880842,435.0 L127.534984,435.0 L127.534984,434.764169 L128.189126,434.764169 L128.189126,434.528338 L128.843268,434.528338 L128.843268,435.0 L129.49741,435.0 L129.49741,434.528338 L130.151552,434.528338 L130.151552,435.0 L130.805694,435.0 L130.805694,435.0 L131.459836,435.0 L131.459836,434.764169 L132.113978,434.764169 L132.113978,434.764169 L132.76812,434.764169 L132.76812,434.528338 L133.422262,434.528338 L133.422262,434.528338 L134.076404,434.528338 L134.076404,434.764169 L134.730546,434.764169 L134.730546,435.0 L135.384688,435.0 L135.384688,434.764169 L136.03883,434.764169 L136.03883,435.0 L136.692972,435.0 L136.692972,435.0 L137.347114,435.0 L137.347114,434.764169 L138.001256,434.764169 L138.001256,435.0 L138.655398,435.0 L138.655398,434.764169 L139.30954,434.764169 L139.30954,435.0 L139.963682,435.0 L139.963682,434.764169 L140.617824,434.764169 L140.617824,434.764169 L141.271966,434.764169 L141.271966,434.528338 L141.926108,434.528338 L141.926108,435.0 L142.58025,435.0 L142.58025,434.528338 L143.234392,434.528338 L143.234392,434.764169 L143.888534,434.764169 L143.888534,435.0 L144.542676,435.0 L144.542676,434.764169 L145.196818,434.764169 L145.196818,434.292507 L145.85096,434.292507 L145.85096,434.528338 L146.505102,434.528338 L146.505102,434.528338 L147.159244,434.528338 L147.159244,435.0 L147.813386,435.0 L147.813386,434.764169 L148.467528,434.764169 L148.467528,435.0 L149.12167,435.0 L149.12167,435.0 L149.775812,435.0 L149.775812,435.0 L150.429954,435.0 L150.429954,435.0 L151.084096,435.0 L151.084096,435.0 L151.738238,435.0 L151.738238,434.764169 L152.39238,434.764169 L152.39238,435.0 L153.046522,435.0 L153.046522,435.0 L153.700664,435.0 L153.700664,434.528338 L154.354806,434.528338 L154.354806,435.0 L155.008948,435.0 L155.008948,435.0 L155.66309,435.0 L155.66309,435.0 L156.317232,435.0 L156.317232,434.764169 L156.971374,434.764169 L156.971374,434.528338 L157.625516,434.528338 L157.625516,435.0 L158.279658,435.0 L158.279658,434.528338 L158.9338,434.528338 L158.9338,435.0 L159.587942,435.0 L159.587942,434.764169 L160.242084,434.764169 L160.242084,435.0 L160.896226,435.0 L160.896226,435.0 L161.550368,435.0 L161.550368,434.528338 L162.20451,434.528338 L162.20451,435.0 L162.858652,435.0 L162.858652,435.0 L163.512794,435.0 L163.512794,434.764169 L164.166936,434.764169 L164.166936,435.0 L164.821078,435.0 L164.821078,435.0 L165.47522,435.0 L165.47522,435.0 L166.129362,435.0 L166.129362,434.764169 L166.783504,434.764169 L166.783504,434.292507 L167.437646,434.292507 L167.437646,434.528338 L168.091788,434.528338 L168.091788,435.0 L168.74593,435.0 L168.74593,434.292507 L169.400072,434.292507 L169.400072,435.0 L170.054214,435.0 L170.054214,434.528338 L170.708356,434.528338 L170.708356,435.0 L171.362498,435.0 L171.362498,435.0 L172.01664,435.0 L172.01664,435.0 L172.670782,435.0 L172.670782,434.764169 L173.324924,434.764169 L173.324924,434.764169 L173.979066,434.764169 L173.979066,434.528338 L174.633208,434.528338 L174.633208,435.0 L175.28735,435.0 L175.28735,434.528338 L175.941492,434.528338 L175.941492,434.764169 L176.595634,434.764169 L176.595634,434.292507 L177.249776,434.292507 L177.249776,435.0 L177.903918,435.0 L177.903918,434.764169 L178.55806,434.764169 L178.55806,434.764169 L179.212202,434.764169 L179.212202,435.0 L179.866344,435.0 L179.866344,434.292507 L180.520486,434.292507 L180.520486,435.0 L181.174628,435.0 L181.174628,434.764169 L181.82877,434.764169 L181.82877,435.0 L182.482912,435.0 L182.482912,434.764169 L183.137054,434.764169 L183.137054,435.0 L183.791196,435.0 L183.791196,434.764169 L184.445338,434.764169 L184.445338,434.764169 L185.09948,434.764169 L185.09948,434.764169 L185.753622,434.764169 L185.753622,434.528338 L186.407764,434.528338 L186.407764,434.528338 L187.061906,434.528338 L187.061906,435.0 L187.716048,435.0 L187.716048,434.764169 L188.37019,434.764169 L188.37019,434.764169 L189.024332,434.764169 L189.024332,435.0 L189.678474,435.0 L189.678474,434.764169 L190.332616,434.764169 L190.332616,435.0 L190.986758,435.0 L190.986758,435.0 L191.6409,435.0 L191.6409,435.0 L192.295042,435.0 L192.295042,435.0 L192.949184,435.0 L192.949184,435.0 L193.603326,435.0 L193.603326,433.820845 L194.257468,433.820845 L194.257468,434.528338 L194.91161,434.528338 L194.91161,434.764169 L195.565752,434.764169 L195.565752,434.528338 L196.219894,434.528338 L196.219894,434.764169 L196.874036,434.764169 L196.874036,435.0 L197.528178,435.0 L197.528178,434.528338 L198.18232,434.528338 L198.18232,434.764169 L198.836462,434.764169 L198.836462,434.764169 L199.490604,434.764169 L199.490604,435.0 L200.144746,435.0 L200.144746,435.0 L200.798888,435.0 L200.798888,435.0 L201.45303,435.0 L201.45303,434.764169 L202.107172,434.764169 L202.107172,435.0 L202.761314,435.0 L202.761314,434.764169 L203.415456,434.764169 L203.415456,435.0 L204.069598,435.0 L204.069598,434.764169 L204.72374,434.764169 L204.72374,435.0 L205.377882,435.0 L205.377882,433.820845 L206.032024,433.820845 L206.032024,434.764169 L206.686166,434.764169 L206.686166,434.764169 L207.340308,434.764169 L207.340308,434.528338 L207.99445,434.528338 L207.99445,434.764169 L208.648592,434.764169 L208.648592,434.292507 L209.302734,434.292507 L209.302734,435.0 L209.956876,435.0 L209.956876,434.764169 L210.611018,434.764169 L210.611018,434.528338 L211.26516,434.528338 L211.26516,434.764169 L211.919302,434.764169 L211.919302,434.528338 L212.573444,434.528338 L212.573444,435.0 L213.227586,435.0 L213.227586,434.528338 L213.881728,434.528338 L213.881728,434.528338 L214.53587,434.528338 L214.53587,434.528338 L215.190012,434.528338 L215.190012,434.528338 L215.844154,434.528338 L215.844154,434.056676 L216.498296,434.056676 L216.498296,434.292507 L217.152438,434.292507 L217.152438,434.764169 L217.80658,434.764169 L217.80658,434.528338 L218.460722,434.528338 L218.460722,435.0 L219.114864,435.0 L219.114864,435.0 L219.769006,435.0 L219.769006,434.764169 L220.423148,434.764169 L220.423148,434.528338 L221.07729,434.528338 L221.07729,434.292507 L221.731432,434.292507 L221.731432,434.528338 L222.385574,434.528338 L222.385574,435.0 L223.039716,435.0 L223.039716,434.764169 L223.693858,434.764169 L223.693858,434.528338 L224.348,434.528338 L224.348,434.528338 L225.002142,434.528338 L225.002142,434.764169 L225.656284,434.764169 L225.656284,434.528338 L226.310426,434.528338 L226.310426,434.764169 L226.964568,434.764169 L226.964568,434.764169 L227.61871,434.764169 L227.61871,434.528338 L228.272852,434.528338 L228.272852,434.292507 L228.926994,434.292507 L228.926994,434.764169 L229.581136,434.764169 L229.581136,434.764169 L230.235278,434.764169 L230.235278,434.764169 L230.88942,434.764169 L230.88942,434.764169 L231.543562,434.764169 L231.543562,435.0 L232.197704,435.0 L232.197704,434.528338 L232.851846,434.528338 L232.851846,434.528338 L233.505988,434.528338 L233.505988,434.764169 L234.16013,434.764169 L234.16013,434.528338 L234.814272,434.528338 L234.814272,434.764169 L235.468414,434.764169 L235.468414,434.528338 L236.122556,434.528338 L236.122556,434.764169 L236.776698,434.764169 L236.776698,434.528338 L237.43084,434.528338 L237.43084,434.764169 L238.084982,434.764169 L238.084982,433.820845 L238.739124,433.820845 L238.739124,434.528338 L239.393266,434.528338 L239.393266,434.764169 L240.047408,434.764169 L240.047408,434.528338 L240.70155,434.528338 L240.70155,433.349183 L241.355692,433.349183 L241.355692,434.764169 L242.009834,434.764169 L242.009834,435.0 L242.663976,435.0 L242.663976,434.292507 L243.318118,434.292507 L243.318118,435.0 L243.97226,435.0 L243.97226,434.292507 L244.626402,434.292507 L244.626402,434.292507 L245.280544,434.292507 L245.280544,434.292507 L245.934686,434.292507 L245.934686,434.764169 L246.588828,434.764169 L246.588828,434.528338 L247.24297,434.528338 L247.24297,434.764169 L247.897112,434.764169 L247.897112,434.292507 L248.551254,434.292507 L248.551254,435.0 L249.205396,435.0 L249.205396,434.528338 L249.859538,434.528338 L249.859538,434.528338 L250.51368,434.528338 L250.51368,434.528338 L251.167822,434.528338 L251.167822,434.056676 L251.821964,434.056676 L251.821964,434.056676 L252.476106,434.056676 L252.476106,434.764169 L253.130248,434.764169 L253.130248,433.113352 L253.78439,433.113352 L253.78439,435.0 L254.438532,435.0 L254.438532,434.292507 L255.092674,434.292507 L255.092674,434.764169 L255.746816,434.764169 L255.746816,433.820845 L256.400958,433.820845 L256.400958,434.292507 L257.0551,434.292507 L257.0551,434.292507 L257.709242,434.292507 L257.709242,433.820845 L258.363384,433.820845 L258.363384,433.820845 L259.017526,433.820845 L259.017526,434.292507 L259.671668,434.292507 L259.671668,434.528338 L260.32581,434.528338 L260.32581,434.292507 L260.979952,434.292507 L260.979952,434.056676 L261.634094,434.056676 L261.634094,433.585014 L262.288236,433.585014 L262.288236,434.528338 L262.942378,434.528338 L262.942378,434.528338 L263.59652,434.528338 L263.59652,434.528338 L264.250662,434.528338 L264.250662,434.056676 L264.904804,434.056676 L264.904804,433.113352 L265.558946,433.113352 L265.558946,434.056676 L266.213088,434.056676 L266.213088,433.820845 L266.86723,433.820845 L266.86723,434.528338 L267.521372,434.528338 L267.521372,434.056676 L268.175514,434.056676 L268.175514,433.585014 L268.829656,433.585014 L268.829656,432.877521 L269.483798,432.877521 L269.483798,435.0 L270.13794,435.0 L270.13794,433.820845 L270.792082,433.820845 L270.792082,434.528338 L271.446224,434.528338 L271.446224,434.056676 L272.100366,434.056676 L272.100366,434.528338 L272.754508,434.528338 L272.754508,432.64169 L273.40865,432.64169 L273.40865,434.056676 L274.062792,434.056676 L274.062792,433.113352 L274.716934,433.113352 L274.716934,434.764169 L275.371076,434.764169 L275.371076,433.820845 L276.025218,433.820845 L276.025218,433.585014 L276.67936,433.585014 L276.67936,433.349183 L277.333502,433.349183 L277.333502,434.528338 L277.987644,434.528338 L277.987644,434.292507 L278.641786,434.292507 L278.641786,433.585014 L279.295928,433.585014 L279.295928,433.585014 L279.95007,433.585014 L279.95007,432.877521 L280.604212,432.877521 L280.604212,433.349183 L281.258354,433.349183 L281.258354,432.405859 L281.912496,432.405859 L281.912496,434.056676 L282.566638,434.056676 L282.566638,433.349183 L283.22078,433.349183 L283.22078,434.292507 L283.874922,434.292507 L283.874922,434.528338 L284.529064,434.528338 L284.529064,433.349183 L285.183206,433.349183 L285.183206,432.877521 L285.837348,432.877521 L285.837348,432.170028 L286.49149,432.170028 L286.49149,432.170028 L287.145632,432.170028 L287.145632,432.170028 L287.799774,432.170028 L287.799774,433.113352 L288.453916,433.113352 L288.453916,432.405859 L289.108058,432.405859 L289.108058,433.113352 L289.7622,433.113352 L289.7622,429.811718 L290.416342,429.811718 L290.416342,433.585014 L291.070484,433.585014 L291.070484,432.170028 L291.724626,432.170028 L291.724626,432.64169 L292.378768,432.64169 L292.378768,432.405859 L293.03291,432.405859 L293.03291,430.755042 L293.687052,430.755042 L293.687052,430.990873 L294.341194,430.990873 L294.341194,432.64169 L294.995336,432.64169 L294.995336,432.877521 L295.649478,432.877521 L295.649478,432.170028 L296.30362,432.170028 L296.30362,432.64169 L296.957762,432.64169 L296.957762,433.585014 L297.611904,433.585014 L297.611904,434.056676 L298.266046,434.056676 L298.266046,434.056676 L298.920188,434.056676 L298.920188,434.292507 L299.57433,434.292507 L299.57433,434.528338 L300.228472,434.528338 L300.228472,434.528338 L300.882614,434.528338 L300.882614,433.820845 L301.536756,433.820845 L301.536756,434.764169 L302.190898,434.764169 L302.190898,434.528338 L302.84504,434.528338 L302.84504,434.292507 L303.499182,434.292507 L303.499182,433.585014 L304.153324,433.585014 L304.153324,433.820845 L304.807466,433.820845 L304.807466,433.820845 L305.461608,433.820845 L305.461608,433.820845 L306.11575,433.820845 L306.11575,434.528338 L306.769892,434.528338 L306.769892,434.528338 L307.424034,434.528338 L307.424034,434.764169 L308.078176,434.764169 L308.078176,434.056676 L308.732318,434.056676 L308.732318,434.292507 L309.38646,434.292507 L309.38646,434.528338 L310.040602,434.528338 L310.040602,433.585014 L310.694744,433.585014 L310.694744,434.056676 L311.348886,434.056676 L311.348886,434.292507 L312.003028,434.292507 L312.003028,433.585014 L312.65717,433.585014 L312.65717,434.292507 L313.311312,434.292507 L313.311312,433.820845 L313.965454,433.820845 L313.965454,434.292507 L314.619596,434.292507 L314.619596,433.585014 L315.273738,433.585014 L315.273738,433.820845 L315.92788,433.820845 L315.92788,434.764169 L316.582022,434.764169 L316.582022,434.292507 L317.236164,434.292507 L317.236164,434.292507 L317.890306,434.292507 L317.890306,433.820845 L318.544448,433.820845 L318.544448,434.528338 L319.19859,434.528338 L319.19859,434.056676 L319.852732,434.056676 L319.852732,434.292507 L320.506874,434.292507 L320.506874,433.820845 L321.161016,433.820845 L321.161016,434.528338 L321.815158,434.528338 L321.815158,434.528338 L322.4693,434.528338 L322.4693,434.764169 L323.123442,434.764169 L323.123442,434.764169 L323.777584,434.764169 L323.777584,433.585014 L324.431726,433.585014 L324.431726,433.820845 L325.085868,433.820845 L325.085868,434.056676 L325.74001,434.056676 L325.74001,433.349183 L326.394152,433.349183 L326.394152,434.292507 L327.048294,434.292507 L327.048294,434.292507 L327.702436,434.292507 L327.702436,434.292507 L328.356578,434.292507 L328.356578,434.528338 L329.01072,434.528338 L329.01072,434.292507 L329.664862,434.292507 L329.664862,433.349183 L330.319004,433.349183 L330.319004,433.349183 L330.973146,433.349183 L330.973146,434.292507 L331.627288,434.292507 L331.627288,434.292507 L332.28143,434.292507 L332.28143,434.056676 L332.935572,434.056676 L332.935572,432.64169 L333.589714,432.64169 L333.589714,433.820845 L334.243856,433.820845 L334.243856,434.056676 L334.897998,434.056676 L334.897998,433.349183 L335.55214,433.349183 L335.55214,434.292507 L336.206282,434.292507 L336.206282,433.820845 L336.860424,433.820845 L336.860424,434.528338 L337.514566,434.528338 L337.514566,433.585014 L338.168708,433.585014 L338.168708,433.585014 L338.82285,433.585014 L338.82285,434.292507 L339.476992,434.292507 L339.476992,434.056676 L340.131134,434.056676 L340.131134,432.877521 L340.785276,432.877521 L340.785276,434.292507 L341.439418,434.292507 L341.439418,433.820845 L342.09356,433.820845 L342.09356,433.820845 L342.747702,433.820845 L342.747702,433.585014 L343.401844,433.585014 L343.401844,433.820845 L344.055986,433.820845 L344.055986,433.349183 L344.710128,433.349183 L344.710128,434.292507 L345.36427,434.292507 L345.36427,433.349183 L346.018412,433.349183 L346.018412,434.528338 L346.672554,434.528338 L346.672554,432.405859 L347.326696,432.405859 L347.326696,434.528338 L347.980838,434.528338 L347.980838,434.292507 L348.63498,434.292507 L348.63498,433.820845 L349.289122,433.820845 L349.289122,433.820845 L349.943264,433.820845 L349.943264,434.292507 L350.597406,434.292507 L350.597406,433.585014 L351.251548,433.585014 L351.251548,434.528338 L351.90569,434.528338 L351.90569,433.820845 L352.559832,433.820845 L352.559832,434.056676 L353.213974,434.056676 L353.213974,432.64169 L353.868116,432.64169 L353.868116,433.585014 L354.522258,433.585014 L354.522258,433.820845 L355.1764,433.820845 L355.1764,433.820845 L355.830542,433.820845 L355.830542,432.877521 L356.484684,432.877521 L356.484684,434.056676 L357.138826,434.056676 L357.138826,433.113352 L357.792968,433.113352 L357.792968,434.056676 L358.44711,434.056676 L358.44711,433.820845 L359.101252,433.820845 L359.101252,434.056676 L359.755394,434.056676 L359.755394,432.405859 L360.409536,432.405859 L360.409536,434.292507 L361.063678,434.292507 L361.063678,432.877521 L361.71782,432.877521 L361.71782,432.64169 L362.371962,432.64169 L362.371962,432.170028 L363.026104,432.170028 L363.026104,431.934197 L363.680246,431.934197 L363.680246,431.934197 L364.334388,431.934197 L364.334388,431.462535 L364.98853,431.462535 L364.98853,431.462535 L365.642672,431.462535 L365.642672,433.585014 L366.296814,433.585014 L366.296814,433.820845 L366.950956,433.820845 L366.950956,432.877521 L367.605098,432.877521 L367.605098,432.170028 L368.25924,432.170028 L368.25924,434.292507 L368.913382,434.292507 L368.913382,433.349183 L369.567524,433.349183 L369.567524,430.990873 L370.221666,430.990873 L370.221666,430.990873 L370.875808,430.990873 L370.875808,431.698366 L371.52995,431.698366 L371.52995,430.755042 L372.184092,430.755042 L372.184092,430.755042 L372.838234,430.755042 L372.838234,430.755042 L373.492376,430.755042 L373.492376,430.755042 L374.146518,430.755042 L374.146518,430.047549 L374.80066,430.047549 L374.80066,431.226704 L375.454802,431.226704 L375.454802,431.226704 L376.108944,431.226704 L376.108944,432.405859 L376.763086,432.405859 L376.763086,430.28338 L377.417228,430.28338 L377.417228,430.755042 L378.07137,430.755042 L378.07137,430.990873 L378.725512,430.990873 L378.725512,430.755042 L379.379654,430.755042 L379.379654,429.811718 L380.033796,429.811718 L380.033796,429.811718 L380.687938,429.811718 L380.687938,430.28338 L381.34208,430.28338 L381.34208,430.990873 L381.996222,430.990873 L381.996222,431.226704 L382.650364,431.226704 L382.650364,430.990873 L383.304506,430.990873 L383.304506,430.755042 L383.958648,430.755042 L383.958648,431.934197 L384.61279,431.934197 L384.61279,432.170028 L385.266932,432.170028 L385.266932,431.698366 L385.921074,431.698366 L385.921074,432.877521 L386.575216,432.877521 L386.575216,433.820845 L387.229358,433.820845 L387.229358,432.405859 L387.8835,432.405859 L387.8835,431.934197 L388.537642,431.934197 L388.537642,430.519211 L389.191784,430.519211 L389.191784,431.226704 L389.845926,431.226704 L389.845926,430.28338 L390.500068,430.28338 L390.500068,430.047549 L391.15421,430.047549 L391.15421,429.104225 L391.808352,429.104225 L391.808352,429.811718 L392.462494,429.811718 L392.462494,427.92507 L393.116636,427.92507 L393.116636,427.689239 L393.770778,427.689239 L393.770778,426.274253 L394.42492,426.274253 L394.42492,428.632563 L395.079062,428.632563 L395.079062,427.453408 L395.733204,427.453408 L395.733204,430.519211 L396.387346,430.519211 L396.387346,429.104225 L397.041488,429.104225 L397.041488,430.28338 L397.69563,430.28338 L397.69563,428.396732 L398.349772,428.396732 L398.349772,427.92507 L399.003914,427.92507 L399.003914,428.396732 L399.658056,428.396732 L399.658056,430.047549 L400.312198,430.047549 L400.312198,426.745915 L400.96634,426.745915 L400.96634,428.396732 L401.620482,428.396732 L401.620482,427.689239 L402.274624,427.689239 L402.274624,424.151774 L402.928766,424.151774 L402.928766,429.575887 L403.582908,429.575887 L403.582908,427.689239 L404.23705,427.689239 L404.23705,427.689239 L404.891192,427.689239 L404.891192,428.160901 L405.545334,428.160901 L405.545334,429.575887 L406.199476,429.575887 L406.199476,428.160901 L406.853618,428.160901 L406.853618,427.92507 L407.50776,427.92507 L407.50776,427.689239 L408.161902,427.689239 L408.161902,426.274253 L408.816044,426.274253 L408.816044,425.330929 L409.470186,425.330929 L409.470186,424.859267 L410.124328,424.859267 L410.124328,425.330929 L410.77847,425.330929 L410.77847,423.444281 L411.432612,423.444281 L411.432612,418.020168 L412.086754,418.020168 L412.086754,416.841013 L412.740896,416.841013 L412.740896,419.670985 L413.395038,419.670985 L413.395038,416.13352 L414.04918,416.13352 L414.04918,411.888562 L414.703322,411.888562 L414.703322,407.407773 L415.357464,407.407773 L415.357464,399.389519 L416.011606,399.389519 L416.011606,396.795378 L416.665748,396.795378 L416.665748,384.060504 L417.31989,384.060504 L417.31989,372.504785 L417.974032,372.504785 L417.974032,356.939939 L418.628174,356.939939 L418.628174,326.51774 L419.282316,326.51774 L419.282316,289.492273 L419.936458,289.492273 L419.936458,268.739145 L420.5906,268.739145 L420.5906,255.296778 L421.244742,255.296778 L421.244742,269.9183 L421.898884,269.9183 L421.898884,308.594584 L422.553026,308.594584 L422.553026,344.440896 L423.207168,344.440896 L423.207168,368.731489 L423.86131,368.731489 L423.86131,387.126307 L424.515452,387.126307 L424.515452,413.067717 L425.169594,413.067717 L425.169594,426.038422 L425.823736,426.038422 L425.823736,431.226704 L426.477878,431.226704 L426.477878,432.877521 L427.13202,432.877521 L427.13202,433.113352 L427.786162,433.113352 L427.786162,432.877521 L428.440304,432.877521 L428.440304,433.113352 L429.094446,433.113352 L429.094446,433.349183 L429.748588,433.349183 L429.748588,433.113352 L430.40273,433.113352 L430.40273,432.170028 L431.056872,432.170028 L431.056872,433.820845 L431.711014,433.820845 L431.711014,432.170028 L432.365156,432.170028 L432.365156,432.64169 L433.019298,432.64169 L433.019298,432.170028 L433.67344,432.170028 L433.67344,431.934197 L434.327582,431.934197 L434.327582,433.113352 L434.981724,433.113352 L434.981724,432.877521 L435.635866,432.877521 L435.635866,433.113352 L436.290008,433.113352 L436.290008,433.585014 L436.94415,433.585014 L436.94415,434.292507 L437.598292,434.292507 L437.598292,434.292507 L438.252434,434.292507 L438.252434,433.820845 L438.906576,433.820845 L438.906576,434.292507 L439.560718,434.292507 L439.560718,434.292507 L440.21486,434.292507 L440.21486,433.820845 L440.869002,433.820845 L440.869002,433.113352 L441.523144,433.113352 L441.523144,433.349183 L442.177286,433.349183 L442.177286,434.764169 L442.831428,434.764169 L442.831428,433.585014 L443.48557,433.585014 L443.48557,434.764169 L444.139712,434.764169 L444.139712,434.764169 L444.793854,434.764169 L444.793854,434.528338 L445.447996,434.528338 L445.447996,434.528338 L446.102138,434.528338 L446.102138,433.820845 L446.75628,433.820845 L446.75628,433.349183 L447.410422,433.349183 L447.410422,433.585014 L448.064564,433.585014 L448.064564,433.113352 L448.718706,433.113352 L448.718706,433.585014 L449.372848,433.585014 L449.372848,434.292507 L450.02699,434.292507 L450.02699,433.820845 L450.681132,433.820845 L450.681132,434.056676 L451.335274,434.056676 L451.335274,434.056676 L451.989416,434.056676 L451.989416,433.820845 L452.643558,433.820845 L452.643558,434.292507 L453.2977,434.292507 L453.2977,433.585014 L453.951842,433.585014 L453.951842,432.405859 L454.605984,432.405859 L454.605984,434.056676 L455.260126,434.056676 L455.260126,434.056676 L455.914268,434.056676 L455.914268,431.934197 L456.56841,431.934197 L456.56841,433.585014 L457.222552,433.585014 L457.222552,433.585014 L457.876694,433.585014 L457.876694,433.585014 L458.530836,433.585014 L458.530836,433.585014 L459.184978,433.585014 L459.184978,433.585014 L459.83912,433.585014 L459.83912,433.113352 L460.493262,433.113352 L460.493262,433.349183 L461.147404,433.349183 L461.147404,432.877521 L461.801546,432.877521 L461.801546,432.877521 L462.455688,432.877521 L462.455688,432.64169 L463.10983,432.64169 L463.10983,433.349183 L463.763972,433.349183 L463.763972,432.64169 L464.418114,432.64169 L464.418114,433.820845 L465.072256,433.820845 L465.072256,433.585014 L465.726398,433.585014 L465.726398,433.585014 L466.38054,433.585014 L466.38054,433.820845 L467.034682,433.820845 L467.034682,434.764169 L467.688824,434.764169 L467.688824,434.528338 L468.342966,434.528338 L468.342966,434.764169 L468.997108,434.764169 L468.997108,434.764169 L469.65125,434.764169 L469.65125,434.528338 L470.305392,434.528338 L470.305392,434.764169 L470.959534,434.764169 L470.959534,435.0 L471.613676,435.0 L471.613676,434.528338 L472.267818,434.528338 L472.267818,434.528338 L472.92196,434.528338 L472.92196,434.764169 L473.576102,434.764169 L473.576102,435.0 L474.230244,435.0 L474.230244,435.0 L474.884386,435.0 L474.884386,435.0 L475.538528,435.0 L475.538528,435.0 L476.19267,435.0 L476.19267,434.764169 L476.846812,434.764169 L476.846812,435.0 L477.500954,435.0 L477.500954,434.764169 L478.155096,434.764169 L478.155096,434.528338 L478.809238,434.528338 L478.809238,435.0 L479.46338,435.0 L479.46338,435.0 L480.117522,435.0 L480.117522,434.528338 L480.771664,434.528338 L480.771664,434.764169 L481.425806,434.764169 L481.425806,434.764169 L482.079948,434.764169 L482.079948,435.0 L482.73409,435.0 L482.73409,435.0 L483.388232,435.0 L483.388232,435.0 L484.042374,435.0 L484.042374,434.528338 L484.696516,434.528338 L484.696516,435.0 L485.350658,435.0 L485.350658,434.764169 L486.0048,434.764169 L486.0048,434.528338 L486.658942,434.528338 L486.658942,435.0 L487.313084,435.0 L487.313084,434.764169 L487.967226,434.764169 L487.967226,435.0 L488.621368,435.0 L488.621368,435.0 L489.27551,435.0 L489.27551,434.764169 L489.929652,434.764169 L489.929652,434.292507 L490.583794,434.292507 L490.583794,435.0 L491.237936,435.0 L491.237936,435.0 L491.892078,435.0 L491.892078,434.528338 L492.54622,434.528338 L492.54622,435.0 L493.200362,435.0 L493.200362,435.0 L493.854504,435.0 L493.854504,434.528338 L494.508646,434.528338 L494.508646,434.764169 L495.162788,434.764169 L495.162788,435.0 L495.81693,435.0 L495.81693,434.764169 L496.471072,434.764169 L496.471072,435.0 L497.125214,435.0 L497.125214,434.528338 L497.779356,434.528338 L497.779356,434.764169 L498.433498,434.764169 L498.433498,434.528338 L499.08764,434.528338 L499.08764,434.292507 L499.741782,434.292507 L499.741782,434.528338 L500.395924,434.528338 L500.395924,434.528338 L501.050066,434.528338 L501.050066,434.764169 L501.704208,434.764169 L501.704208,435.0 L502.35835,435.0 L502.35835,434.056676 L503.012492,434.056676 L503.012492,434.764169 L503.666634,434.764169 L503.666634,434.764169 L504.320776,434.764169 L504.320776,434.528338 L504.974918,434.528338 L504.974918,434.764169 L505.62906,434.764169 L505.62906,434.528338 L506.283202,434.528338 L506.283202,434.764169 L506.937344,434.764169 L506.937344,434.528338 L507.591486,434.528338 L507.591486,435.0 L508.245628,435.0 L508.245628,434.764169 L508.89977,434.764169 L508.89977,434.292507 L509.553912,434.292507 L509.553912,434.528338 L510.208054,434.528338 L510.208054,434.056676 L510.862196,434.056676 L510.862196,433.820845 L511.516338,433.820845 L511.516338,434.056676 L512.17048,434.056676 L512.17048,434.764169 L512.824622,434.764169 L512.824622,434.764169 L513.478764,434.764169 L513.478764,435.0 L514.132906,435.0 L514.132906,434.528338 L514.787048,434.528338 L514.787048,434.528338 L515.44119,434.528338 L515.44119,433.820845 L516.095332,433.820845 L516.095332,434.292507 L516.749474,434.292507 L516.749474,434.528338 L517.403616,434.528338 L517.403616,434.528338 L518.057758,434.528338 L518.057758,434.528338 L518.7119,434.528338 L518.7119,434.764169 L519.366042,434.764169 L519.366042,434.292507 L520.020184,434.292507 L520.020184,434.292507 L520.674326,434.292507 L520.674326,434.292507 L521.328468,434.292507 L521.328468,434.056676 L521.98261,434.056676 L521.98261,434.764169 L522.636752,434.764169 L522.636752,433.585014 L523.290894,433.585014 L523.290894,434.292507 L523.945036,434.292507 L523.945036,433.585014 L524.599178,433.585014 L524.599178,434.056676 L525.25332,434.056676 L525.25332,434.292507 L525.907462,434.292507 L525.907462,434.764169 L526.561604,434.764169 L526.561604,435.0 L527.215746,435.0 L527.215746,434.528338 L527.869888,434.528338 L527.869888,434.528338 L528.52403,434.528338 L528.52403,434.056676 L529.178172,434.056676 L529.178172,434.528338 L529.832314,434.528338 L529.832314,433.820845 L530.486456,433.820845 L530.486456,434.528338 L531.140598,434.528338 L531.140598,435.0 L531.79474,435.0 L531.79474,434.528338 L532.448882,434.528338 L532.448882,434.528338 L533.103024,434.528338 L533.103024,433.820845 L533.757166,433.820845 L533.757166,433.820845 L534.411308,433.820845 L534.411308,433.820845 L535.06545,433.820845 L535.06545,434.528338 L535.719592,434.528338 L535.719592,434.292507 L536.373734,434.292507 L536.373734,434.292507 L537.027876,434.292507 L537.027876,434.292507 L537.682018,434.292507 L537.682018,433.349183 L538.33616,433.349183 L538.33616,434.292507 L538.990302,434.292507 L538.990302,433.820845 L539.644444,433.820845 L539.644444,434.292507 L540.298586,434.292507 L540.298586,433.585014 L540.952728,433.585014 L540.952728,433.349183 L541.60687,433.349183 L541.60687,433.585014 L542.261012,433.585014 L542.261012,433.585014 L542.915154,433.585014 L542.915154,433.349183 L543.569296,433.349183 L543.569296,434.056676 L544.223438,434.056676 L544.223438,434.292507 L544.87758,434.292507 L544.87758,433.585014 L545.531722,433.585014 L545.531722,432.405859 L546.185864,432.405859 L546.185864,434.292507 L546.840006,434.292507 L546.840006,433.585014 L547.494148,433.585014 L547.494148,433.349183 L548.14829,433.349183 L548.14829,433.820845 L548.802432,433.820845 L548.802432,434.056676 L549.456574,434.056676 L549.456574,434.292507 L550.110716,434.292507 L550.110716,433.820845 L550.764858,433.820845 L550.764858,434.292507 L551.419,434.292507 L551.419,434.056676 L552.073142,434.056676 L552.073142,433.820845 L552.727284,433.820845 L552.727284,434.056676 L553.381426,434.056676 L553.381426,433.349183 L554.035568,433.349183 L554.035568,431.934197 L554.68971,431.934197 L554.68971,432.405859 L555.343852,432.405859 L555.343852,431.934197 L555.997994,431.934197 L555.997994,433.585014 L556.652136,433.585014 L556.652136,433.349183 L557.306278,433.349183 L557.306278,432.877521 L557.96042,432.877521 L557.96042,431.462535 L558.614562,431.462535 L558.614562,433.113352 L559.268704,433.113352 L559.268704,431.934197 L559.922846,431.934197 L559.922846,431.226704 L560.576988,431.226704 L560.576988,431.462535 L561.23113,431.462535 L561.23113,432.64169 L561.885272,432.64169 L561.885272,431.698366 L562.539414,431.698366 L562.539414,431.698366 L563.193556,431.698366 L563.193556,431.462535 L563.847698,431.462535 L563.847698,432.877521 L564.50184,432.877521 L564.50184,430.28338 L565.155982,430.28338 L565.155982,429.340056 L565.810124,429.340056 L565.810124,430.28338 L566.464266,430.28338 L566.464266,429.340056 L567.118408,429.340056 L567.118408,429.575887 L567.77255,429.575887 L567.77255,430.519211 L568.426692,430.519211 L568.426692,427.453408 L569.080834,427.453408 L569.080834,429.340056 L569.734976,429.340056 L569.734976,428.868394 L570.389118,428.868394 L570.389118,426.745915 L571.04326,426.745915 L571.04326,426.981746 L571.697402,426.981746 L571.697402,424.387605 L572.351544,424.387605 L572.351544,426.981746 L573.005686,426.981746 L573.005686,425.56676 L573.659828,425.56676 L573.659828,423.680112 L574.31397,423.680112 L574.31397,421.793464 L574.968112,421.793464 L574.968112,420.142647 L575.622254,420.142647 L575.622254,419.670985 L576.276396,419.670985 L576.276396,419.435154 L576.930538,419.435154 L576.930538,418.255999 L577.58468,418.255999 L577.58468,419.906816 L578.238822,419.906816 L578.238822,413.77521 L578.892964,413.77521 L578.892964,410.709407 L579.547106,410.709407 L579.547106,407.643604 L580.201248,407.643604 L580.201248,400.804505 L580.85539,400.804505 L580.85539,397.974533 L581.509532,397.974533 L581.509532,386.182983 L582.163674,386.182983 L582.163674,376.749743 L582.817816,376.749743 L582.817816,361.184897 L583.471958,361.184897 L583.471958,328.404388 L584.1261,328.404388 L584.1261,289.020611 L584.780242,289.020611 L584.780242,251.759313 L585.434384,251.759313 L585.434384,190.914915 L586.088526,190.914915 L586.088526,84.555134 L586.742668,84.555134 L586.742668,40.454737 L587.39681,40.454737 L587.39681,77.480204 L588.050952,77.480204 L588.050952,183.368323 L588.705094,183.368323 L588.705094,285.247315 L589.359236,285.247315 L589.359236,361.184897 L590.013378,361.184897 L590.013378,394.437068 L590.66752,394.437068 L590.66752,415.190196 L591.321662,415.190196 L591.321662,421.793464 L591.975804,421.793464 L591.975804,424.859267 L592.629946,424.859267 L592.629946,424.859267 L593.284088,424.859267 L593.284088,427.92507 L593.93823,427.92507 L593.93823,427.217577 L594.592372,427.217577 L594.592372,426.274253 L595.246514,426.274253 L595.246514,430.519211 L595.900656,430.519211 L595.900656,429.575887 L596.554798,429.575887 L596.554798,429.575887 L597.20894,429.575887 L597.20894,430.990873 L597.863082,430.990873 L597.863082,431.934197 L598.517224,431.934197 L598.517224,430.28338 L599.171366,430.28338 L599.171366,431.226704 L599.825508,431.226704 L599.825508,432.877521 L600.47965,432.877521 L600.47965,433.585014 L601.133792,433.585014 L601.133792,433.585014 L601.787934,433.585014 L601.787934,433.585014 L602.442076,433.585014 L602.442076,433.349183 L603.096218,433.349183 L603.096218,432.877521 L603.75036,432.877521 L603.75036,433.113352 L604.404502,433.113352 L604.404502,433.820845 L605.058644,433.820845 L605.058644,434.056676 L605.712786,434.056676 L605.712786,434.292507 L606.366928,434.292507 L606.366928,435.0 L607.02107,435.0 L607.02107,434.292507 L607.675212,434.292507 L607.675212,434.528338 L608.329354,434.528338 L608.329354,434.292507 L608.983496,434.292507 L608.983496,434.292507 L609.637638,434.292507 L609.637638,434.764169 L610.29178,434.764169 L610.29178,434.764169 L610.945922,434.764169 L610.945922,435.0 L611.600064,435.0 L611.600064,434.764169 L612.254206,434.764169 L612.254206,435.0 L612.908348,435.0 L612.908348,434.764169 L613.56249,434.764169 L613.56249,435.0 L614.216632,435.0 L614.216632,434.764169 L614.870774,434.764169 L614.870774,435.0 L615.524916,435.0 L615.524916,434.764169 L616.179058,434.764169 L616.179058,435.0 L616.8332,435.0 L616.8332,434.764169 L617.487342,434.764169 L617.487342,435.0 L618.141484,435.0 L618.141484,434.764169 L618.795626,434.764169 L618.795626,434.764169 L619.449768,434.764169 L619.449768,434.764169 L620.10391,434.764169 L620.10391,435.0 L620.758052,435.0 L620.758052,435.0 L621.412194,435.0 L621.412194,435.0 L622.066336,435.0 L622.066336,435.0 L622.720478,435.0 L622.720478,435.0 L623.37462,435.0 L623.37462,435.0 L624.028762,435.0 L624.028762,435.0 L624.682904,435.0 L624.682904,435.0 L625.337046,435.0 L625.337046,435.0 L625.991188,435.0 L625.991188,435.0 L626.64533,435.0 L626.64533,435.0 L627.299472,435.0 L627.299472,435.0 L627.953614,435.0 L627.953614,435.0 L628.607756,435.0 L628.607756,435.0 L629.261898,435.0 L629.261898,435.0 L629.91604,435.0 L629.91604,435.0 L630.570182,435.0 L630.570182,435.0 L631.224324,435.0 L631.224324,435.0 L631.878466,435.0 L631.878466,435.0 L632.532608,435.0 L632.532608,435.0 L633.18675,435.0 L633.18675,435.0 L633.840892,435.0 L633.840892,435.0 L634.495034,435.0 L634.495034,435.0 L635.149176,435.0 L635.149176,435.0 L635.803318,435.0 L635.803318,435.0 L636.45746,435.0 L636.45746,435.0 L637.111602,435.0 L637.111602,435.0 L637.765744,435.0 L637.765744,435.0 L638.419886,435.0 L638.419886,435.0 L639.074028,435.0 L639.074028,435.0 L639.72817,435.0 L639.72817,435.0 L640.382312,435.0 L640.382312,435.0 L641.036454,435.0 L641.036454,435.0 L641.690596,435.0 L641.690596,435.0 L642.344738,435.0 L642.344738,435.0 L642.99888,435.0 L642.99888,435.0 L643.653022,435.0 L643.653022,435.0 L644.307164,435.0 L644.307164,435.0 L644.961306,435.0 L644.961306,435.0 L645.615448,435.0 L645.615448,435.0 L646.26959,435.0 L646.26959,435.0 L646.923732,435.0 L646.923732,435.0 L647.577874,435.0 L647.577874,435.0 L648.232016,435.0 L648.232016,435.0 L648.886158,435.0 L648.886158,435.0 L649.5403,435.0 L649.5403,435.0 L650.194442,435.0 L650.194442,435.0 L650.848584,435.0 L650.848584,435.0 L651.502726,435.0 L651.502726,435.0 L652.156868,435.0 L652.156868,435.0 L652.81101,435.0 L652.81101,435.0 L653.465152,435.0 L653.465152,435.0 L654.119294,435.0 L654.119294,435.0 L654.773436,435.0 L654.773436,435.0 L655.427578,435.0 L655.427578,435.0 L656.08172,435.0 L656.08172,435.0 L656.735862,435.0 L656.735862,435.0 L657.390004,435.0 L657.390004,435.0 L658.044146,435.0 L658.044146,435.0 L658.698288,435.0 L658.698288,435.0 L659.35243,435.0 L659.35243,435.0 L660.006572,435.0 L660.006572,435.0 L660.660714,435.0 L660.660714,435.0 L661.314856,435.0 L661.314856,435.0 L661.968998,435.0 L661.968998,435.0 L662.62314,435.0 L662.62314,435.0 L663.277282,435.0 L663.277282,435.0 L663.931424,435.0 L663.931424,435.0 L664.585566,435.0 L664.585566,435.0 L665.239708,435.0 L665.239708,435.0 L665.89385,435.0 L665.89385,435.0 L666.547992,435.0 L666.547992,435.0 L667.202134,435.0 L667.202134,435.0 L667.856276,435.0 L667.856276,435.0 L668.510418,435.0 L668.510418,435.0 L669.16456,435.0 L669.16456,435.0 L669.818702,435.0 L669.818702,435.0 L670.472844,435.0 L670.472844,435.0 L671.126986,435.0 L671.126986,435.0 L671.781128,435.0 L671.781128,435.0 L672.43527,435.0 L672.43527,435.0 L673.089412,435.0 L673.089412,435.0 L673.743554,435.0 L673.743554,435.0 L674.397696,435.0 L674.397696,435.0 L675.051838,435.0 L675.051838,435.0 L675.70598,435.0 L675.70598,435.0 L676.360122,435.0 L676.360122,435.0 L677.014264,435.0 L677.014264,435.0 L677.668406,435.0 L677.668406,435.0 L678.322548,435.0 L678.322548,435.0 L678.97669,435.0 L678.97669,435.0 L679.630832,435.0 L679.630832,435.0 L680.284974,435.0 L680.284974,435.0 L680.939116,435.0 L680.939116,435.0 L681.593258,435.0 L681.593258,435.0 L682.2474,435.0 L682.2474,435.0 L682.901542,435.0 L682.901542,435.0 L683.555684,435.0 L683.555684,435.0 L684.209826,435.0 L684.209826,435.0 L684.863968,435.0 L684.863968,435.0 L685.51811,435.0 L685.51811,435.0 L686.172252,435.0 L686.172252,434.764169 L686.826394,434.764169 L686.826394,435.0 L687.480536,435.0 L687.480536,435.0 L688.134678,435.0 L688.134678,435.0 L688.78882,435.0 L688.78882,435.0 L689.442962,435.0 L689.442962,435.0 L690.097104,435.0 L690.097104,435.0 L690.751246,435.0 L690.751246,435.0 L691.405388,435.0 L691.405388,435.0 L692.05953,435.0 L692.05953,435.0 L692.713672,435.0 L692.713672,435.0 L693.367814,435.0 L693.367814,435.0 L694.021956,435.0 L694.021956,435.0 L694.676098,435.0 L694.676098,434.764169 L695.33024,434.764169 L695.33024,435.0 L695.984382,435.0 L695.984382,435.0 L696.638524,435.0 L696.638524,435.0 L697.292666,435.0 L697.292666,435.0 L697.946808,435.0 L697.946808,435.0 L698.60095,435.0 L698.60095,435.0 L699.255092,435.0 L699.255092,435.0 L699.909234,435.0 L699.909234,435.0 L700.563376,435.0 L700.563376,435.0 L701.217518,435.0 L701.217518,435.0 L701.87166,435.0 L701.87166,435.0 L702.525802,435.0 L702.525802,435.0 L703.179944,435.0 L703.179944,435.0 L703.834086,435.0 L703.834086,435.0 L704.488228,435.0 L704.488228,435.0 L705.14237,435.0 L705.14237,435.0 L705.796512,435.0 L705.796512,435.0 L706.450654,435.0 L706.450654,435.0 L707.104796,435.0 L707.104796,435.0 L707.758938,435.0 L707.758938,435.0 L708.41308,435.0 L708.41308,435.0 L709.067222,435.0 L709.067222,435.0 L709.721364,435.0 L709.721364,435.0 L710.375506,435.0 L710.375506,435.0 L711.029648,435.0 L711.029648,435.0 L711.68379,435.0 L711.68379,435.0 L712.337932,435.0 L712.337932,435.0 L712.992074,435.0 L712.992074,435.0 L713.646216,435.0 L713.646216,435.0 L714.300358,435.0 L714.300358,435.0 L714.9545,435.0 L714.9545,435.0 L715.608642,435.0 L715.608642,435.0 L716.262784,435.0 L716.262784,435.0 L716.916926,435.0 L716.916926,435.0 L717.571068,435.0 L717.571068,435.0 L718.22521,435.0 L718.22521,435.0 L718.879352,435.0 L718.879352,435.0 L719.533494,435.0 L719.533494,435.0 L720.187636,435.0 L720.187636,435.0 L720.841778,435.0 L720.841778,435.0 L721.49592,435.0 L721.49592,435.0 L722.150062,435.0 L722.150062,435.0 L722.804204,435.0 L722.804204,435.0 L723.458346,435.0 L723.458346,435.0 L724.112488,435.0 L724.112488,435.0 L724.76663,435.0 L724.76663,435.0 L725.420772,435.0 L725.420772,435.0 L726.074914,435.0 L726.074914,435.0 L726.729056,435.0 L726.729056,435.0 L727.383198,435.0 L727.383198,435.0 L728.03734,435.0 L728.03734,435.0 L728.691482,435.0 L728.691482,435.0 L729.345624,435.0 L729.345624,435.0 L729.999766,435.0 L729.999766,435.0 L60.8125,435.0 " fill-rule="evenodd" vector-effect="non-scaling-stroke"/>
                    </g>
                    <g fill="none" font-family="Ubuntu" font-size="14.6667" font-style="normal" font-weight="400" stroke="#ffffff" stroke-linecap="square" stroke-linejoin="bevel" stroke-opacity="1" stroke-width="1">
                        <path d="M60.8125,435.0 L60.8125,435.0 L61.466642,435.0 L61.466642,435.0 L62.120784,435.0 L62.120784,435.0 L62.774926,435.0 L62.774926,435.0 L63.429068,435.0 L63.429068,435.0 L64.08321,435.0 L64.08321,435.0 L64.737352,435.0 L64.737352,435.0 L65.391494,435.0 L65.391494,435.0 L66.045636,435.0 L66.045636,435.0 L66.699778,435.0 L66.699778,435.0 L67.35392,435.0 L67.35392,435.0 L68.008062,435.0 L68.008062,435.0 L68.662204,435.0 L68.662204,435.0 L69.316346,435.0 L69.316346,435.0 L69.970488,435.0 L69.970488,435.0 L70.62463,435.0 L70.62463,435.0 L71.278772,435.0 L71.278772,435.0 L71.932914,435.0 L71.932914,435.0 L72.587056,435.0 L72.587056,435.0 L73.241198,435.0 L73.241198,435.0 L73.89534,435.0 L73.89534,435.0 L74.549482,435.0 L74.549482,435.0 L75.203624,435.0 L75.203624,435.0 L75.857766,435.0 L75.857766,435.0 L76.511908,435.0 L76.511908,435.0 L77.16605,435.0 L77.16605,435.0 L77.820192,435.0 L77.820192,435.0 L78.474334,435.0 L78.474334,435.0 L79.128476,435.0 L79.128476,435.0 L79.782618,435.0 L79.782618,435.0 L80.43676,435.0 L80.43676,435.0 L81.090902,435.0 L81.090902,435.0 L81.745044,435.0 L81.745044,435.0 L82.399186,435.0 L82.399186,435.0 L83.053328,435.0 L83.053328,435.0 L83.70747,435.0 L83.70747,435.0 L84.361612,435.0 L84.361612,435.0 L85.015754,435.0 L85.015754,435.0 L85.669896,435.0 L85.669896,435.0 L86.324038,435.0 L86.324038,435.0 L86.97818,435.0 L86.97818,435.0 L87.632322,435.0 L87.632322,435.0 L88.286464,435.0 L88.286464,435.0 L88.940606,435.0 L88.940606,435.0 L89.594748,435.0 L89.594748,435.0 L90.24889,435.0 L90.24889,435.0 L90.903032,435.0 L90.903032,435.0 L91.557174,435.0 L91.557174,435.0 L92.211316,435.0 L92.211316,435.0 L92.865458,435.0 L92.865458,435.0 L93.5196,435.0 L93.5196,435.0 L94.173742,435.0 L94.173742,435.0 L94.827884,435.0 L94.827884,435.0 L95.482026,435.0 L95.482026,435.0 L96.136168,435.0 L96.136168,435.0 L96.79031,435.0 L96.79031,435.0 L97.444452,435.0 L97.444452,435.0 L98.098594,435.0 L98.098594,435.0 L98.752736,435.0 L98.752736,435.0 L99.406878,435.0 L99.406878,435.0 L100.06102,435.0 L100.06102,435.0 L100.715162,435.0 L100.715162,434.292507 L101.369304,434.292507 L101.369304,433.585014 L102.023446,433.585014 L102.023446,434.764169 L102.677588,434.764169 L102.677588,434.528338 L103.33173,434.528338 L103.33173,435.0 L103.985872,435.0 L103.985872,434.764169 L104.640014,434.764169 L104.640014,434.056676 L105.294156,434.056676 L105.294156,434.528338 L105.948298,434.528338 L105.948298,434.528338 L106.60244,434.528338 L106.60244,435.0 L107.256582,435.0 L107.256582,434.528338 L107.910724,434.528338 L107.910724,434.764169 L108.564866,434.764169 L108.564866,435.0 L109.219008,435.0 L109.219008,434.764169 L109.87315,434.764169 L109.87315,434.764169 L110.527292,434.764169 L110.527292,435.0 L111.181434,435.0 L111.181434,434.764169 L111.835576,434.764169 L111.835576,435.0 L112.489718,435.0 L112.489718,435.0 L113.14386,435.0 L113.14386,434.764169 L113.798002,434.764169 L113.798002,435.0 L114.452144,435.0 L114.452144,434.764169 L115.106286,434.764169 L115.106286,434.528338 L115.760428,434.528338 L115.760428,434.764169 L116.41457,434.764169 L116.41457,434.528338 L117.068712,434.528338 L117.068712,434.764169 L117.722854,434.764169 L117.722854,435.0 L118.376996,435.0 L118.376996,435.0 L119.031138,435.0 L119.031138,434.764169 L119.68528,434.764169 L119.68528,435.0 L120.339422,435.0 L120.339422,435.0 L120.993564,435.0 L120.993564,434.764169 L121.647706,434.764169 L121.647706,434.764169 L122.301848,434.764169 L122.301848,434.764169 L122.95599,434.764169 L122.95599,434.764169 L123.610132,434.764169 L123.610132,435.0 L124.264274,435.0 L124.264274,435.0 L124.918416,435.0 L124.918416,433.820845 L125.572558,433.820845 L125.572558,434.528338 L126.2267,434.528338 L126.2267,434.764169 L126.880842,434.764169 L126.880842,435.0 L127.534984,435.0 L127.534984,434.764169 L128.189126,434.764169 L128.189126,434.528338 L128.843268,434.528338 L128.843268,435.0 L129.49741,435.0 L129.49741,434.528338 L130.151552,434.528338 L130.151552,435.0 L130.805694,435.0 L130.805694,435.0 L131.459836,435.0 L131.459836,434.764169 L132.113978,434.764169 L132.113978,434.764169 L132.76812,434.764169 L132.76812,434.528338 L133.422262,434.528338 L133.422262,434.528338 L134.076404,434.528338 L134.076404,434.764169 L134.730546,434.764169 L134.730546,435.0 L135.384688,435.0 L135.384688,434.764169 L136.03883,434.764169 L136.03883,435.0 L136.692972,435.0 L136.692972,435.0 L137.347114,435.0 L137.347114,434.764169 L138.001256,434.764169 L138.001256,435.0 L138.655398,435.0 L138.655398,434.764169 L139.30954,434.764169 L139.30954,435.0 L139.963682,435.0 L139.963682,434.764169 L140.617824,434.764169 L140.617824,434.764169 L141.271966,434.764169 L141.271966,434.528338 L141.926108,434.528338 L141.926108,435.0 L142.58025,435.0 L142.58025,434.528338 L143.234392,434.528338 L143.234392,434.764169 L143.888534,434.764169 L143.888534,435.0 L144.542676,435.0 L144.542676,434.764169 L145.196818,434.764169 L145.196818,434.292507 L145.85096,434.292507 L145.85096,434.528338 L146.505102,434.528338 L146.505102,434.528338 L147.159244,434.528338 L147.159244,435.0 L147.813386,435.0 L147.813386,434.764169 L148.467528,434.764169 L148.467528,435.0 L149.12167,435.0 L149.12167,435.0 L149.775812,435.0 L149.775812,435.0 L150.429954,435.0 L150.429954,435.0 L151.084096,435.0 L151.084096,435.0 L151.738238,435.0 L151.738238,434.764169 L152.39238,434.764169 L152.39238,435.0 L153.046522,435.0 L153.046522,435.0 L153.700664,435.0 L153.700664,434.528338 L154.354806,434.528338 L154.354806,435.0 L155.008948,435.0 L155.008948,435.0 L155.66309,435.0 L155.66309,435.0 L156.317232,435.0 L156.317232,434.764169 L156.971374,434.764169 L156.971374,434.528338 L157.625516,434.528338 L157.625516,435.0 L158.279658,435.0 L158.279658,434.528338 L158.9338,434.528338 L158.9338,435.0 L159.587942,435.0 L159.587942,434.764169 L160.242084,434.764169 L160.242084,435.0 L160.896226,435.0 L160.896226,435.0 L161.550368,435.0 L161.550368,434.528338 L162.20451,434.528338 L162.20451,435.0 L162.858652,435.0 L162.858652,435.0 L163.512794,435.0 L163.512794,434.764169 L164.166936,434.764169 L164.166936,435.0 L164.821078,435.0 L164.821078,435.0 L165.47522,435.0 L165.47522,435.0 L166.129362,435.0 L166.129362,434.764169 L166.783504,434.764169 L166.783504,434.292507 L167.437646,434.292507 L167.437646,434.528338 L168.091788,434.528338 L168.091788,435.0 L168.74593,435.0 L168.74593,434.292507 L169.400072,434.292507 L169.400072,435.0 L170.054214,435.0 L170.054214,434.528338 L170.708356,434.528338 L170.708356,435.0 L171.362498,435.0 L171.362498,435.0 L172.01664,435.0 L172.01664,435.0 L172.670782,435.0 L172.670782,434.764169 L173.324924,434.764169 L173.324924,434.764169 L173.979066,434.764169 L173.979066,434.528338 L174.633208,434.528338 L174.633208,435.0 L175.28735,435.0 L175.28735,434.528338 L175.941492,434.528338 L175.941492,434.764169 L176.595634,434.764169 L176.595634,434.292507 L177.249776,434.292507 L177.249776,435.0 L177.903918,435.0 L177.903918,434.764169 L178.55806,434.764169 L178.55806,434.764169 L179.212202,434.764169 L179.212202,435.0 L179.866344,435.0 L179.866344,434.292507 L180.520486,434.292507 L180.520486,435.0 L181.174628,435.0 L181.174628,434.764169 L181.82877,434.764169 L181.82877,435.0 L182.482912,435.0 L182.482912,434.764169 L183.137054,434.764169 L183.137054,435.0 L183.791196,435.0 L183.791196,434.764169 L184.445338,434.764169 L184.445338,434.764169 L185.09948,434.764169 L185.09948,434.764169 L185.753622,434.764169 L185.753622,434.528338 L186.407764,434.528338 L186.407764,434.528338 L187.061906,434.528338 L187.061906,435.0 L187.716048,435.0 L187.716048,434.764169 L188.37019,434.764169 L188.37019,434.764169 L189.024332,434.764169 L189.024332,435.0 L189.678474,435.0 L189.678474,434.764169 L190.332616,434.764169 L190.332616,435.0 L190.986758,435.0 L190.986758,435.0 L191.6409,435.0 L191.6409,435.0 L192.295042,435.0 L192.295042,435.0 L192.949184,435.0 L192.949184,435.0 L193.603326,435.0 L193.603326,433.820845 L194.257468,433.820845 L194.257468,434.528338 L194.91161,434.528338 L194.91161,434.764169 L195.565752,434.764169 L195.565752,434.528338 L196.219894,434.528338 L196.219894,434.764169 L196.874036,434.764169 L196.874036,435.0 L197.528178,435.0 L197.528178,434.528338 L198.18232,434.528338 L198.18232,434.764169 L198.836462,434.764169 L198.836462,434.764169 L199.490604,434.764169 L199.490604,435.0 L200.144746,435.0 L200.144746,435.0 L200.798888,435.0 L200.798888,435.0 L201.45303,435.0 L201.45303,434.764169 L202.107172,434.764169 L202.107172,435.0 L202.761314,435.0 L202.761314,434.764169 L203.415456,434.764169 L203.415456,435.0 L204.069598,435.0 L204.069598,434.764169 L204.72374,434.764169 L204.72374,435.0 L205.377882,435.0 L205.377882,433.820845 L206.032024,433.820845 L206.032024,434.764169 L206.686166,434.764169 L206.686166,434.764169 L207.340308,434.764169 L207.340308,434.528338 L207.99445,434.528338 L207.99445,434.764169 L208.648592,434.764169 L208.648592,434.292507 L209.302734,434.292507 L209.302734,435.0 L209.956876,435.0 L209.956876,434.764169 L210.611018,434.764169 L210.611018,434.528338 L211.26516,434.528338 L211.26516,434.764169 L211.919302,434.764169 L211.919302,434.528338 L212.573444,434.528338 L212.573444,435.0 L213.227586,435.0 L213.227586,434.528338 L213.881728,434.528338 L213.881728,434.528338 L214.53587,434.528338 L214.53587,434.528338 L215.190012,434.528338 L215.190012,434.528338 L215.844154,434.528338 L215.844154,434.056676 L216.498296,434.056676 L216.498296,434.292507 L217.152438,434.292507 L217.152438,434.764169 L217.80658,434.764169 L217.80658,434.528338 L218.460722,434.528338 L218.460722,435.0 L219.114864,435.0 L219.114864,435.0 L219.769006,435.0 L219.769006,434.764169 L220.423148,434.764169 L220.423148,434.528338 L221.07729,434.528338 L221.07729,434.292507 L221.731432,434.292507 L221.731432,434.528338 L222.385574,434.528338 L222.385574,435.0 L223.039716,435.0 L223.039716,434.764169 L223.693858,434.764169 L223.693858,434.528338 L224.348,434.528338 L224.348,434.528338 L225.002142,434.528338 L225.002142,434.764169 L225.656284,434.764169 L225.656284,434.528338 L226.310426,434.528338 L226.310426,434.764169 L226.964568,434.764169 L226.964568,434.764169 L227.61871,434.764169 L227.61871,434.528338 L228.272852,434.528338 L228.272852,434.292507 L228.926994,434.292507 L228.926994,434.764169 L229.581136,434.764169 L229.581136,434.764169 L230.235278,434.764169 L230.235278,434.764169 L230.88942,434.764169 L230.88942,434.764169 L231.543562,434.764169 L231.543562,435.0 L232.197704,435.0 L232.197704,434.528338 L232.851846,434.528338 L232.851846,434.528338 L233.505988,434.528338 L233.505988,434.764169 L234.16013,434.764169 L234.16013,434.528338 L234.814272,434.528338 L234.814272,434.764169 L235.468414,434.764169 L235.468414,434.528338 L236.122556,434.528338 L236.122556,434.764169 L236.776698,434.764169 L236.776698,434.528338 L237.43084,434.528338 L237.43084,434.764169 L238.084982,434.764169 L238.084982,433.820845 L238.739124,433.820845 L238.739124,434.528338 L239.393266,434.528338 L239.393266,434.764169 L240.047408,434.764169 L240.047408,434.528338 L240.70155,434.528338 L240.70155,433.349183 L241.355692,433.349183 L241.355692,434.764169 L242.009834,434.764169 L242.009834,435.0 L242.663976,435.0 L242.663976,434.292507 L243.318118,434.292507 L243.318118,435.0 L243.97226,435.0 L243.97226,434.292507 L244.626402,434.292507 L244.626402,434.292507 L245.280544,434.292507 L245.280544,434.292507 L245.934686,434.292507 L245.934686,434.764169 L246.588828,434.764169 L246.588828,434.528338 L247.24297,434.528338 L247.24297,434.764169 L247.897112,434.764169 L247.897112,434.292507 L248.551254,434.292507 L248.551254,435.0 L249.205396,435.0 L249.205396,434.528338 L249.859538,434.528338 L249.859538,434.528338 L250.51368,434.528338 L250.51368,434.528338 L251.167822,434.528338 L251.167822,434.056676 L251.821964,434.056676 L251.821964,434.056676 L252.476106,434.056676 L252.476106,434.764169 L253.130248,434.764169 L253.130248,433.113352 L253.78439,433.113352 L253.78439,435.0 L254.438532,435.0 L254.438532,434.292507 L255.092674,434.292507 L255.092674,434.764169 L255.746816,434.764169 L255.746816,433.820845 L256.400958,433.820845 L256.400958,434.292507 L257.0551,434.292507 L257.0551,434.292507 L257.709242,434.292507 L257.709242,433.820845 L258.363384,433.820845 L258.363384,433.820845 L259.017526,433.820845 L259.017526,434.292507 L259.671668,434.292507 L259.671668,434.528338 L260.32581,434.528338 L260.32581,434.292507 L260.979952,434.292507 L260.979952,434.056676 L261.634094,434.056676 L261.634094,433.585014 L262.288236,433.585014 L262.288236,434.528338 L262.942378,434.528338 L262.942378,434.528338 L263.59652,434.528338 L263.59652,434.528338 L264.250662,434.528338 L264.250662,434.056676 L264.904804,434.056676 L264.904804,433.113352 L265.558946,433.113352 L265.558946,434.056676 L266.213088,434.056676 L266.213088,433.820845 L266.86723,433.820845 L266.86723,434.528338 L267.521372,434.528338 L267.521372,434.056676 L268.175514,434.056676 L268.175514,433.585014 L268.829656,433.585014 L268.829656,432.877521 L269.483798,432.877521 L269.483798,435.0 L270.13794,435.0 L270.13794,433.820845 L270.792082,433.820845 L270.792082,434.528338 L271.446224,434.528338 L271.446224,434.056676 L272.100366,434.056676 L272.100366,434.528338 L272.754508,434.528338 L272.754508,432.64169 L273.40865,432.64169 L273.40865,434.056676 L274.062792,434.056676 L274.062792,433.113352 L274.716934,433.113352 L274.716934,434.764169 L275.371076,434.764169 L275.371076,433.820845 L276.025218,433.820845 L276.025218,433.585014 L276.67936,433.585014 L276.67936,433.349183 L277.333502,433.349183 L277.333502,434.528338 L277.987644,434.528338 L277.987644,434.292507 L278.641786,434.292507 L278.641786,433.585014 L279.295928,433.585014 L279.295928,433.585014 L279.95007,433.585014 L279.95007,432.877521 L280.604212,432.877521 L280.604212,433.349183 L281.258354,433.349183 L281.258354,432.405859 L281.912496,432.405859 L281.912496,434.056676 L282.566638,434.056676 L282.566638,433.349183 L283.22078,433.349183 L283.22078,434.292507 L283.874922,434.292507 L283.874922,434.528338 L284.529064,434.528338 L284.529064,433.349183 L285.183206,433.349183 L285.183206,432.877521 L285.837348,432.877521 L285.837348,432.170028 L286.49149,432.170028 L286.49149,432.170028 L287.145632,432.170028 L287.145632,432.170028 L287.799774,432.170028 L287.799774,433.113352 L288.453916,433.113352 L288.453916,432.405859 L289.108058,432.405859 L289.108058,433.113352 L289.7622,433.113352 L289.7622,429.811718 L290.416342,429.811718 L290.416342,433.585014 L291.070484,433.585014 L291.070484,432.170028 L291.724626,432.170028 L291.724626,432.64169 L292.378768,432.64169 L292.378768,432.405859 L293.03291,432.405859 L293.03291,430.755042 L293.687052,430.755042 L293.687052,430.990873 L294.341194,430.990873 L294.341194,432.64169 L294.995336,432.64169 L294.995336,432.877521 L295.649478,432.877521 L295.649478,432.170028 L296.30362,432.170028 L296.30362,432.64169 L296.957762,432.64169 L296.957762,433.585014 L297.611904,433.585014 L297.611904,434.056676 L298.266046,434.056676 L298.266046,434.056676 L298.920188,434.056676 L298.920188,434.292507 L299.57433,434.292507 L299.57433,434.528338 L300.228472,434.528338 L300.228472,434.528338 L300.882614,434.528338 L300.882614,433.820845 L301.536756,433.820845 L301.536756,434.764169 L302.190898,434.764169 L302.190898,434.528338 L302.84504,434.528338 L302.84504,434.292507 L303.499182,434.292507 L303.499182,433.585014 L304.153324,433.585014 L304.153324,433.820845 L304.807466,433.820845 L304.807466,433.820845 L305.461608,433.820845 L305.461608,433.820845 L306.11575,433.820845 L306.11575,434.528338 L306.769892,434.528338 L306.769892,434.528338 L307.424034,434.528338 L307.424034,434.764169 L308.078176,434.764169 L308.078176,434.056676 L308.732318,434.056676 L308.732318,434.292507 L309.38646,434.292507 L309.38646,434.528338 L310.040602,434.528338 L310.040602,433.585014 L310.694744,433.585014 L310.694744,434.056676 L311.348886,434.056676 L311.348886,434.292507 L312.003028,434.292507 L312.003028,433.585014 L312.65717,433.585014 L312.65717,434.292507 L313.311312,434.292507 L313.311312,433.820845 L313.965454,433.820845 L313.965454,434.292507 L314.619596,434.292507 L314.619596,433.585014 L315.273738,433.585014 L315.273738,433.820845 L315.92788,433.820845 L315.92788,434.764169 L316.582022,434.764169 L316.582022,434.292507 L317.236164,434.292507 L317.236164,434.292507 L317.890306,434.292507 L317.890306,433.820845 L318.544448,433.820845 L318.544448,434.528338 L319.19859,434.528338 L319.19859,434.056676 L319.852732,434.056676 L319.852732,434.292507 L320.506874,434.292507 L320.506874,433.820845 L321.161016,433.820845 L321.161016,434.528338 L321.815158,434.528338 L321.815158,434.528338 L322.4693,434.528338 L322.4693,434.764169 L323.123442,434.764169 L323.123442,434.764169 L323.777584,434.764169 L323.777584,433.585014 L324.431726,433.585014 L324.431726,433.820845 L325.085868,433.820845 L325.085868,434.056676 L325.74001,434.056676 L325.74001,433.349183 L326.394152,433.349183 L326.394152,434.292507 L327.048294,434.292507 L327.048294,434.292507 L327.702436,434.292507 L327.702436,434.292507 L328.356578,434.292507 L328.356578,434.528338 L329.01072,434.528338 L329.01072,434.292507 L329.664862,434.292507 L329.664862,433.349183 L330.319004,433.349183 L330.319004,433.349183 L330.973146,433.349183 L330.973146,434.292507 L331.627288,434.292507 L331.627288,434.292507 L332.28143,434.292507 L332.28143,434.056676 L332.935572,434.056676 L332.935572,432.64169 L333.589714,432.64169 L333.589714,433.820845 L334.243856,433.820845 L334.243856,434.056676 L334.897998,434.056676 L334.897998,433.349183 L335.55214,433.349183 L335.55214,434.292507 L336.206282,434.292507 L336.206282,433.820845 L336.860424,433.820845 L336.860424,434.528338 L337.514566,434.528338 L337.514566,433.585014 L338.168708,433.585014 L338.168708,433.585014 L338.82285,433.585014 L338.82285,434.292507 L339.476992,434.292507 L339.476992,434.056676 L340.131134,434.056676 L340.131134,432.877521 L340.785276,432.877521 L340.785276,434.292507 L341.439418,434.292507 L341.439418,433.820845 L342.09356,433.820845 L342.09356,433.820845 L342.747702,433.820845 L342.747702,433.585014 L343.401844,433.585014 L343.401844,433.820845 L344.055986,433.820845 L344.055986,433.349183 L344.710128,433.349183 L344.710128,434.292507 L345.36427,434.292507 L345.36427,433.349183 L346.018412,433.349183 L346.018412,434.528338 L346.672554,434.528338 L346.672554,432.405859 L347.326696,432.405859 L347.326696,434.528338 L347.980838,434.528338 L347.980838,434.292507 L348.63498,434.292507 L348.63498,433.820845 L349.289122,433.820845 L349.289122,433.820845 L349.943264,433.820845 L349.943264,434.292507 L350.597406,434.292507 L350.597406,433.585014 L351.251548,433.585014 L351.251548,434.528338 L351.90569,434.528338 L351.90569,433.820845 L352.559832,433.820845 L352.559832,434.056676 L353.213974,434.056676 L353.213974,432.64169 L353.868116,432.64169 L353.868116,433.585014 L354.522258,433.585014 L354.522258,433.820845 L355.1764,433.820845 L355.1764,433.820845 L355.830542,433.820845 L355.830542,432.877521 L356.484684,432.877521 L356.484684,434.056676 L357.138826,434.056676 L357.138826,433.113352 L357.792968,433.113352 L357.792968,434.056676 L358.44711,434.056676 L358.44711,433.820845 L359.101252,433.820845 L359.101252,434.056676 L359.755394,434.056676 L359.755394,432.405859 L360.409536,432.405859 L360.409536,434.292507 L361.063678,434.292507 L361.063678,432.877521 L361.71782,432.877521 L361.71782,432.64169 L362.371962,432.64169 L362.371962,432.170028 L363.026104,432.170028 L363.026104,431.934197 L363.680246,431.934197 L363.680246,431.934197 L364.334388,431.934197 L364.334388,431.462535 L364.98853,431.462535 L364.98853,431.462535 L365.642672,431.462535 L365.642672,433.585014 L366.296814,433.585014 L366.296814,433.820845 L366.950956,433.820845 L366.950956,432.877521 L367.605098,432.877521 L367.605098,432.170028 L368.25924,432.170028 L368.25924,434.292507 L368.913382,434.292507 L368.913382,433.349183 L369.567524,433.349183 L369.567524,430.990873 L370.221666,430.990873 L370.221666,430.990873 L370.875808,430.990873 L370.875808,431.698366 L371.52995,431.698366 L371.52995,430.755042 L372.184092,430.755042 L372.184092,430.755042 L372.838234,430.755042 L372.838234,430.755042 L373.492376,430.755042 L373.492376,430.755042 L374.146518,430.755042 L374.146518,430.047549 L374.80066,430.047549 L374.80066,431.226704 L375.454802,431.226704 L375.454802,431.226704 L376.108944,431.226704 L376.108944,432.405859 L376.763086,432.405859 L376.763086,430.28338 L377.417228,430.28338 L377.417228,430.755042 L378.07137,430.755042 L378.07137,430.990873 L378.725512,430.990873 L378.725512,430.755042 L379.379654,430.755042 L379.379654,429.811718 L380.033796,429.811718 L380.033796,429.811718 L380.687938,429.811718 L380.687938,430.28338 L381.34208,430.28338 L381.34208,430.990873 L381.996222,430.990873 L381.996222,431.226704 L382.650364,431.226704 L382.650364,430.990873 L383.304506,430.990873 L383.304506,430.755042 L383.958648,430.755042 L383.958648,431.934197 L384.61279,431.934197 L384.61279,432.170028 L385.266932,432.170028 L385.266932,431.698366 L385.921074,431.698366 L385.921074,432.877521 L386.575216,432.877521 L386.575216,433.820845 L387.229358,433.820845 L387.229358,432.405859 L387.8835,432.405859 L387.8835,431.934197 L388.537642,431.934197 L388.537642,430.519211 L389.191784,430.519211 L389.191784,431.226704 L389.845926,431.226704 L389.845926,430.28338 L390.500068,430.28338 L390.500068,430.047549 L391.15421,430.047549 L391.15421,429.104225 L391.808352,429.104225 L391.808352,429.811718 L392.462494,429.811718 L392.462494,427.92507 L393.116636,427.92507 L393.116636,427.689239 L393.770778,427.689239 L393.770778,426.274253 L394.42492,426.274253 L394.42492,428.632563 L395.079062,428.632563 L395.079062,427.453408 L395.733204,427.453408 L395.733204,430.519211 L396.387346,430.519211 L396.387346,429.104225 L397.041488,429.104225 L397.041488,430.28338 L397.69563,430.28338 L397.69563,428.396732 L398.349772,428.396732 L398.349772,427.92507 L399.003914,427.92507 L399.003914,428.396732 L399.658056,428.396732 L399.658056,430.047549 L400.312198,430.047549 L400.312198,426.745915 L400.96634,426.745915 L400.96634,428.396732 L401.620482,428.396732 L401.620482,427.689239 L402.274624,427.689239 L402.274624,424.151774 L402.928766,424.151774 L402.928766,429.575887 L403.582908,429.575887 L403.582908,427.689239 L404.23705,427.689239 L404.23705,427.689239 L404.891192,427.689239 L404.891192,428.160901 L405.545334,428.160901 L405.545334,429.575887 L406.199476,429.575887 L406.199476,428.160901 L406.853618,428.160901 L406.853618,427.92507 L407.50776,427.92507 L407.50776,427.689239 L408.161902,427.689239 L408.161902,426.274253 L408.816044,426.274253 L408.816044,425.330929 L409.470186,425.330929 L409.470186,424.859267 L410.124328,424.859267 L410.124328,425.330929 L410.77847,425.330929 L410.77847,423.444281 L411.432612,423.444281 L411.432612,418.020168 L412.086754,418.020168 L412.086754,416.841013 L412.740896,416.841013 L412.740896,419.670985 L413.395038,419.670985 L413.395038,416.13352 L414.04918,416.13352 L414.04918,411.888562 L414.703322,411.888562 L414.703322,407.407773 L415.357464,407.407773 L415.357464,399.389519 L416.011606,399.389519 L416.011606,396.795378 L416.665748,396.795378 L416.665748,384.060504 L417.31989,384.060504 L417.31989,372.504785 L417.974032,372.504785 L417.974032,356.939939 L418.628174,356.939939 L418.628174,326.51774 L419.282316,326.51774 L419.282316,289.492273 L419.936458,289.492273 L419.936458,268.739145 L420.5906,268.739145 L420.5906,255.296778 L421.244742,255.296778 L421.244742,269.9183 L421.898884,269.9183 L421.898884,308.594584 L422.553026,308.594584 L422.553026,344.440896 L423.207168,344.440896 L423.207168,368.731489 L423.86131,368.731489 L423.86131,387.126307 L424.515452,387.126307 L424.515452,413.067717 L425.169594,413.067717 L425.169594,426.038422 L425.823736,426.038422 L425.823736,431.226704 L426.477878,431.226704 L426.477878,432.877521 L427.13202,432.877521 L427.13202,433.113352 L427.786162,433.113352 L427.786162,432.877521 L428.440304,432.877521 L428.440304,433.113352 L429.094446,433.113352 L429.094446,433.349183 L429.748588,433.349183 L429.748588,433.113352 L430.40273,433.113352 L430.40273,432.170028 L431.056872,432.170028 L431.056872,433.820845 L431.711014,433.820845 L431.711014,432.170028 L432.365156,432.170028 L432.365156,432.64169 L433.019298,432.64169 L433.019298,432.170028 L433.67344,432.170028 L433.67344,431.934197 L434.327582,431.934197 L434.327582,433.113352 L434.981724,433.113352 L434.981724,432.877521 L435.635866,432.877521 L435.635866,433.113352 L436.290008,433.113352 L436.290008,433.585014 L436.94415,433.585014 L436.94415,434.292507 L437.598292,434.292507 L437.598292,434.292507 L438.252434,434.292507 L438.252434,433.820845 L438.906576,433.820845 L438.906576,434.292507 L439.560718,434.292507 L439.560718,434.292507 L440.21486,434.292507 L440.21486,433.820845 L440.869002,433.820845 L440.869002,433.113352 L441.523144,433.113352 L441.523144,433.349183 L442.177286,433.349183 L442.177286,434.764169 L442.831428,434.764169 L442.831428,433.585014 L443.48557,433.585014 L443.48557,434.764169 L444.139712,434.764169 L444.139712,434.764169 L444.793854,434.764169 L444.793854,434.528338 L445.447996,434.528338 L445.447996,434.528338 L446.102138,434.528338 L446.102138,433.820845 L446.75628,433.820845 L446.75628,433.349183 L447.410422,433.349183 L447.410422,433.585014 L448.064564,433.585014 L448.064564,433.113352 L448.718706,433.113352 L448.718706,433.585014 L449.372848,433.585014 L449.372848,434.292507 L450.02699,434.292507 L450.02699,433.820845 L450.681132,433.820845 L450.681132,434.056676 L451.335274,434.056676 L451.335274,434.056676 L451.989416,434.056676 L451.989416,433.820845 L452.643558,433.820845 L452.643558,434.292507 L453.2977,434.292507 L453.2977,433.585014 L453.951842,433.585014 L453.951842,432.405859 L454.605984,432.405859 L454.605984,434.056676 L455.260126,434.056676 L455.260126,434.056676 L455.914268,434.056676 L455.914268,431.934197 L456.56841,431.934197 L456.56841,433.585014 L457.222552,433.585014 L457.222552,433.585014 L457.876694,433.585014 L457.876694,433.585014 L458.530836,433.585014 L458.530836,433.585014 L459.184978,433.585014 L459.184978,433.585014 L459.83912,433.585014 L459.83912,433.113352 L460.493262,433.113352 L460.493262,433.349183 L461.147404,433.349183 L461.147404,432.877521 L461.801546,432.877521 L461.801546,432.877521 L462.455688,432.877521 L462.455688,432.64169 L463.10983,432.64169 L463.10983,433.349183 L463.763972,433.349183 L463.763972,432.64169 L464.418114,432.64169 L464.418114,433.820845 L465.072256,433.820845 L465.072256,433.585014 L465.726398,433.585014 L465.726398,433.585014 L466.38054,433.585014 L466.38054,433.820845 L467.034682,433.820845 L467.034682,434.764169 L467.688824,434.764169 L467.688824,434.528338 L468.342966,434.528338 L468.342966,434.764169 L468.997108,434.764169 L468.997108,434.764169 L469.65125,434.764169 L469.65125,434.528338 L470.305392,434.528338 L470.305392,434.764169 L470.959534,434.764169 L470.959534,435.0 L471.613676,435.0 L471.613676,434.528338 L472.267818,434.528338 L472.267818,434.528338 L472.92196,434.528338 L472.92196,434.764169 L473.576102,434.764169 L473.576102,435.0 L474.230244,435.0 L474.230244,435.0 L474.884386,435.0 L474.884386,435.0 L475.538528,435.0 L475.538528,435.0 L476.19267,435.0 L476.19267,434.764169 L476.846812,434.764169 L476.846812,435.0 L477.500954,435.0 L477.500954,434.764169 L478.155096,434.764169 L478.155096,434.528338 L478.809238,434.528338 L478.809238,435.0 L479.46338,435.0 L479.46338,435.0 L480.117522,435.0 L480.117522,434.528338 L480.771664,434.528338 L480.771664,434.764169 L481.425806,434.764169 L481.425806,434.764169 L482.079948,434.764169 L482.079948,435.0 L482.73409,435.0 L482.73409,435.0 L483.388232,435.0 L483.388232,435.0 L484.042374,435.0 L484.042374,434.528338 L484.696516,434.528338 L484.696516,435.0 L485.350658,435.0 L485.350658,434.764169 L486.0048,434.764169 L486.0048,434.528338 L486.658942,434.528338 L486.658942,435.0 L487.313084,435.0 L487.313084,434.764169 L487.967226,434.764169 L487.967226,435.0 L488.621368,435.0 L488.621368,435.0 L489.27551,435.0 L489.27551,434.764169 L489.929652,434.764169 L489.929652,434.292507 L490.583794,434.292507 L490.583794,435.0 L491.237936,435.0 L491.237936,435.0 L491.892078,435.0 L491.892078,434.528338 L492.54622,434.528338 L492.54622,435.0 L493.200362,435.0 L493.200362,435.0 L493.854504,435.0 L493.854504,434.528338 L494.508646,434.528338 L494.508646,434.764169 L495.162788,434.764169 L495.162788,435.0 L495.81693,435.0 L495.81693,434.764169 L496.471072,434.764169 L496.471072,435.0 L497.125214,435.0 L497.125214,434.528338 L497.779356,434.528338 L497.779356,434.764169 L498.433498,434.764169 L498.433498,434.528338 L499.08764,434.528338 L499.08764,434.292507 L499.741782,434.292507 L499.741782,434.528338 L500.395924,434.528338 L500.395924,434.528338 L501.050066,434.528338 L501.050066,434.764169 L501.704208,434.764169 L501.704208,435.0 L502.35835,435.0 L502.35835,434.056676 L503.012492,434.056676 L503.012492,434.764169 L503.666634,434.764169 L503.666634,434.764169 L504.320776,434.764169 L504.320776,434.528338 L504.974918,434.528338 L504.974918,434.764169 L505.62906,434.764169 L505.62906,434.528338 L506.283202,434.528338 L506.283202,434.764169 L506.937344,434.764169 L506.937344,434.528338 L507.591486,434.528338 L507.591486,435.0 L508.245628,435.0 L508.245628,434.764169 L508.89977,434.764169 L508.89977,434.292507 L509.553912,434.292507 L509.553912,434.528338 L510.208054,434.528338 L510.208054,434.056676 L510.862196,434.056676 L510.862196,433.820845 L511.516338,433.820845 L511.516338,434.056676 L512.17048,434.056676 L512.17048,434.764169 L512.824622,434.764169 L512.824622,434.764169 L513.478764,434.764169 L513.478764,435.0 L514.132906,435.0 L514.132906,434.528338 L514.787048,434.528338 L514.787048,434.528338 L515.44119,434.528338 L515.44119,433.820845 L516.095332,433.820845 L516.095332,434.292507 L516.749474,434.292507 L516.749474,434.528338 L517.403616,434.528338 L517.403616,434.528338 L518.057758,434.528338 L518.057758,434.528338 L518.7119,434.528338 L518.7119,434.764169 L519.366042,434.764169 L519.366042,434.292507 L520.020184,434.292507 L520.020184,434.292507 L520.674326,434.292507 L520.674326,434.292507 L521.328468,434.292507 L521.328468,434.056676 L521.98261,434.056676 L521.98261,434.764169 L522.636752,434.764169 L522.636752,433.585014 L523.290894,433.585014 L523.290894,434.292507 L523.945036,434.292507 L523.945036,433.585014 L524.599178,433.585014 L524.599178,434.056676 L525.25332,434.056676 L525.25332,434.292507 L525.907462,434.292507 L525.907462,434.764169 L526.561604,434.764169 L526.561604,435.0 L527.215746,435.0 L527.215746,434.528338 L527.869888,434.528338 L527.869888,434.528338 L528.52403,434.528338 L528.52403,434.056676 L529.178172,434.056676 L529.178172,434.528338 L529.832314,434.528338 L529.832314,433.820845 L530.486456,433.820845 L530.486456,434.528338 L531.140598,434.528338 L531.140598,435.0 L531.79474,435.0 L531.79474,434.528338 L532.448882,434.528338 L532.448882,434.528338 L533.103024,434.528338 L533.103024,433.820845 L533.757166,433.820845 L533.757166,433.820845 L534.411308,433.820845 L534.411308,433.820845 L535.06545,433.820845 L535.06545,434.528338 L535.719592,434.528338 L535.719592,434.292507 L536.373734,434.292507 L536.373734,434.292507 L537.027876,434.292507 L537.027876,434.292507 L537.682018,434.292507 L537.682018,433.349183 L538.33616,433.349183 L538.33616,434.292507 L538.990302,434.292507 L538.990302,433.820845 L539.644444,433.820845 L539.644444,434.292507 L540.298586,434.292507 L540.298586,433.585014 L540.952728,433.585014 L540.952728,433.349183 L541.60687,433.349183 L541.60687,433.585014 L542.261012,433.585014 L542.261012,433.585014 L542.915154,433.585014 L542.915154,433.349183 L543.569296,433.349183 L543.569296,434.056676 L544.223438,434.056676 L544.223438,434.292507 L544.87758,434.292507 L544.87758,433.585014 L545.531722,433.585014 L545.531722,432.405859 L546.185864,432.405859 L546.185864,434.292507 L546.840006,434.292507 L546.840006,433.585014 L547.494148,433.585014 L547.494148,433.349183 L548.14829,433.349183 L548.14829,433.820845 L548.802432,433.820845 L548.802432,434.056676 L549.456574,434.056676 L549.456574,434.292507 L550.110716,434.292507 L550.110716,433.820845 L550.764858,433.820845 L550.764858,434.292507 L551.419,434.292507 L551.419,434.056676 L552.073142,434.056676 L552.073142,433.820845 L552.727284,433.820845 L552.727284,434.056676 L553.381426,434.056676 L553.381426,433.349183 L554.035568,433.349183 L554.035568,431.934197 L554.68971,431.934197 L554.68971,432.405859 L555.343852,432.405859 L555.343852,431.934197 L555.997994,431.934197 L555.997994,433.585014 L556.652136,433.585014 L556.652136,433.349183 L557.306278,433.349183 L557.306278,432.877521 L557.96042,432.877521 L557.96042,431.462535 L558.614562,431.462535 L558.614562,433.113352 L559.268704,433.113352 L559.268704,431.934197 L559.922846,431.934197 L559.922846,431.226704 L560.576988,431.226704 L560.576988,431.462535 L561.23113,431.462535 L561.23113,432.64169 L561.885272,432.64169 L561.885272,431.698366 L562.539414,431.698366 L562.539414,431.698366 L563.193556,431.698366 L563.193556,431.462535 L563.847698,431.462535 L563.847698,432.877521 L564.50184,432.877521 L564.50184,430.28338 L565.155982,430.28338 L565.155982,429.340056 L565.810124,429.340056 L565.810124,430.28338 L566.464266,430.28338 L566.464266,429.340056 L567.118408,429.340056 L567.118408,429.575887 L567.77255,429.575887 L567.77255,430.519211 L568.426692,430.519211 L568.426692,427.453408 L569.080834,427.453408 L569.080834,429.340056 L569.734976,429.340056 L569.734976,428.868394 L570.389118,428.868394 L570.389118,426.745915 L571.04326,426.745915 L571.04326,426.981746 L571.697402,426.981746 L571.697402,424.387605 L572.351544,424.387605 L572.351544,426.981746 L573.005686,426.981746 L573.005686,425.56676 L573.659828,425.56676 L573.659828,423.680112 L574.31397,423.680112 L574.31397,421.793464 L574.968112,421.793464 L574.968112,420.142647 L575.622254,420.142647 L575.622254,419.670985 L576.276396,419.670985 L576.276396,419.435154 L576.930538,419.435154 L576.930538,418.255999 L577.58468,418.255999 L577.58468,419.906816 L578.238822,419.906816 L578.238822,413.77521 L578.892964,413.77521 L578.892964,410.709407 L579.547106,410.709407 L579.547106,407.643604 L580.201248,407.643604 L580.201248,400.804505 L580.85539,400.804505 L580.85539,397.974533 L581.509532,397.974533 L581.509532,386.182983 L582.163674,386.182983 L582.163674,376.749743 L582.817816,376.749743 L582.817816,361.184897 L583.471958,361.184897 L583.471958,328.404388 L584.1261,328.404388 L584.1261,289.020611 L584.780242,289.020611 L584.780242,251.759313 L585.434384,251.759313 L585.434384,190.914915 L586.088526,190.914915 L586.088526,84.555134 L586.742668,84.555134 L586.742668,40.454737 L587.39681,40.454737 L587.39681,77.480204 L588.050952,77.480204 L588.050952,183.368323 L588.705094,183.368323 L588.705094,285.247315 L589.359236,285.247315 L589.359236,361.184897 L590.013378,361.184897 L590.013378,394.437068 L590.66752,394.437068 L590.66752,415.190196 L591.321662,415.190196 L591.321662,421.793464 L591.975804,421.793464 L591.975804,424.859267 L592.629946,424.859267 L592.629946,424.859267 L593.284088,424.859267 L593.284088,427.92507 L593.93823,427.92507 L593.93823,427.217577 L594.592372,427.217577 L594.592372,426.274253 L595.246514,426.274253 L595.246514,430.519211 L595.900656,430.519211 L595.900656,429.575887 L596.554798,429.575887 L596.554798,429.575887 L597.20894,429.575887 L597.20894,430.990873 L597.863082,430.990873 L597.863082,431.934197 L598.517224,431.934197 L598.517224,430.28338 L599.171366,430.28338 L599.171366,431.226704 L599.825508,431.226704 L599.825508,432.877521 L600.47965,432.877521 L600.47965,433.585014 L601.133792,433.585014 L601.133792,433.585014 L601.787934,433.585014 L601.787934,433.585014 L602.442076,433.585014 L602.442076,433.349183 L603.096218,433.349183 L603.096218,432.877521 L603.75036,432.877521 L603.75036,433.113352 L604.404502,433.113352 L604.404502,433.820845 L605.058644,433.820845 L605.058644,434.056676 L605.712786,434.056676 L605.712786,434.292507 L606.366928,434.292507 L606.366928,435.0 L607.02107,435.0 L607.02107,434.292507 L607.675212,434.292507 L607.675212,434.528338 L608.329354,434.528338 L608.329354,434.292507 L608.983496,434.292507 L608.983496,434.292507 L609.637638,434.292507 L609.637638,434.764169 L610.29178,434.764169 L610.29178,434.764169 L610.945922,434.764169 L610.945922,435.0 L611.600064,435.0 L611.600064,434.764169 L612.254206,434.764169 L612.254206,435.0 L612.908348,435.0 L612.908348,434.764169 L613.56249,434.764169 L613.56249,435.0 L614.216632,435.0 L614.216632,434.764169 L614.870774,434.764169 L614.870774,435.0 L615.524916,435.0 L615.524916,434.764169 L616.179058,434.764169 L616.179058,435.0 L616.8332,435.0 L616.8332,434.764169 L617.487342,434.764169 L617.487342,435.0 L618.141484,435.0 L618.141484,434.764169 L618.795626,434.764169 L618.795626,434.764169 L619.449768,434.764169 L619.449768,434.764169 L620.10391,434.764169 L620.10391,435.0 L620.758052,435.0 L620.758052,435.0 L621.412194,435.0 L621.412194,435.0 L622.066336,435.0 L622.066336,435.0 L622.720478,435.0 L622.720478,435.0 L623.37462,435.0 L623.37462,435.0 L624.028762,435.0 L624.028762,435.0 L624.682904,435.0 L624.682904,435.0 L625.337046,435.0 L625.337046,435.0 L625.991188,435.0 L625.991188,435.0 L626.64533,435.0 L626.64533,435.0 L627.299472,435.0 L627.299472,435.0 L627.953614,435.0 L627.953614,435.0 L628.607756,435.0 L628.607756,435.0 L629.261898,435.0 L629.261898,435.0 L629.91604,435.0 L629.91604,435.0 L630.570182,435.0 L630.570182,435.0 L631.224324,435.0 L631.224324,435.0 L631.878466,435.0 L631.878466,435.0 L632.532608,435.0 L632.532608,435.0 L633.18675,435.0 L633.18675,435.0 L633.840892,435.0 L633.840892,435.0 L634.495034,435.0 L634.495034,435.0 L635.149176,435.0 L635.149176,435.0 L635.803318,435.0 L635.803318,435.0 L636.45746,435.0 L636.45746,435.0 L637.111602,435.0 L637.111602,435.0 L637.765744,435.0 L637.765744,435.0 L638.419886,435.0 L638.419886,435.0 L639.074028,435.0 L639.074028,435.0 L639.72817,435.0 L639.72817,435.0 L640.382312,435.0 L640.382312,435.0 L641.036454,435.0 L641.036454,435.0 L641.690596,435.0 L641.690596,435.0 L642.344738,435.0 L642.344738,435.0 L642.99888,435.0 L642.99888,435.0 L643.653022,435.0 L643.653022,435.0 L644.307164,435.0 L644.307164,435.0 L644.961306,435.0 L644.961306,435.0 L645.615448,435.0 L645.615448,435.0 L646.26959,435.0 L646.26959,435.0 L646.923732,435.0 L646.923732,435.0 L647.577874,435.0 L647.577874,435.0 L648.232016,435.0 L648.232016,435.0 L648.886158,435.0 L648.886158,435.0 L649.5403,435.0 L649.5403,435.0 L650.194442,435.0 L650.194442,435.0 L650.848584,435.0 L650.848584,435.0 L651.502726,435.0 L651.502726,435.0 L652.156868,435.0 L652.156868,435.0 L652.81101,435.0 L652.81101,435.0 L653.465152,435.0 L653.465152,435.0 L654.119294,435.0 L654.119294,435.0 L654.773436,435.0 L654.773436,435.0 L655.427578,435.0 L655.427578,435.0 L656.08172,435.0 L656.08172,435.0 L656.735862,435.0 L656.735862,435.0 L657.390004,435.0 L657.390004,435.0 L658.044146,435.0 L658.044146,435.0 L658.698288,435.0 L658.698288,435.0 L659.35243,435.0 L659.35243,435.0 L660.006572,435.0 L660.006572,435.0 L660.660714,435.0 L660.660714,435.0 L661.314856,435.0 L661.314856,435.0 L661.968998,435.0 L661.968998,435.0 L662.62314,435.0 L662.62314,435.0 L663.277282,435.0 L663.277282,435.0 L663.931424,435.0 L663.931424,435.0 L664.585566,435.0 L664.585566,435.0 L665.239708,435.0 L665.239708,435.0 L665.89385,435.0 L665.89385,435.0 L666.547992,435.0 L666.547992,435.0 L667.202134,435.0 L667.202134,435.0 L667.856276,435.0 L667.856276,435.0 L668.510418,435.0 L668.510418,435.0 L669.16456,435.0 L669.16456,435.0 L669.818702,435.0 L669.818702,435.0 L670.472844,435.0 L670.472844,435.0 L671.126986,435.0 L671.126986,435.0 L671.781128,435.0 L671.781128,435.0 L672.43527,435.0 L672.43527,435.0 L673.089412,435.0 L673.089412,435.0 L673.743554,435.0 L673.743554,435.0 L674.397696,435.0 L674.397696,435.0 L675.051838,435.0 L675.051838,435.0 L675.70598,435.0 L675.70598,435.0 L676.360122,435.0 L676.360122,435.0 L677.014264,435.0 L677.014264,435.0 L677.668406,435.0 L677.668406,435.0 L678.322548,435.0 L678.322548,435.0 L678.97669,435.0 L678.97669,435.0 L679.630832,435.0 L679.630832,435.0 L680.284974,435.0 L680.284974,435.0 L680.939116,435.0 L680.939116,435.0 L681.593258,435.0 L681.593258,435.0 L682.2474,435.0 L682.2474,435.0 L682.901542,435.0 L682.901542,435.0 L683.555684,435.0 L683.555684,435.0 L684.209826,435.0 L684.209826,435.0 L684.863968,435.0 L684.863968,435.0 L685.51811,435.0 L685.51811,435.0 L686.172252,435.0 L686.172252,434.764169 L686.826394,434.764169 L686.826394,435.0 L687.480536,435.0 L687.480536,435.0 L688.134678,435.0 L688.134678,435.0 L688.78882,435.0 L688.78882,435.0 L689.442962,435.0 L689.442962,435.0 L690.097104,435.0 L690.097104,435.0 L690.751246,435.0 L690.751246,435.0 L691.405388,435.0 L691.405388,435.0 L692.05953,435.0 L692.05953,435.0 L692.713672,435.0 L692.713672,435.0 L693.367814,435.0 L693.367814,435.0 L694.021956,435.0 L694.021956,435.0 L694.676098,435.0 L694.676098,434.764169 L695.33024,434.764169 L695.33024,435.0 L695.984382,435.0 L695.984382,435.0 L696.638524,435.0 L696.638524,435.0 L697.292666,435.0 L697.292666,435.0 L697.946808,435.0 L697.946808,435.0 L698.60095,435.0 L698.60095,435.0 L699.255092,435.0 L699.255092,435.0 L699.909234,435.0 L699.909234,435.0 L700.563376,435.0 L700.563376,435.0 L701.217518,435.0 L701.217518,435.0 L701.87166,435.0 L701.87166,435.0 L702.525802,435.0 L702.525802,435.0 L703.179944,435.0 L703.179944,435.0 L703.834086,435.0 L703.834086,435.0 L704.488228,435.0 L704.488228,435.0 L705.14237,435.0 L705.14237,435.0 L705.796512,435.0 L705.796512,435.0 L706.450654,435.0 L706.450654,435.0 L707.104796,435.0 L707.104796,435.0 L707.758938,435.0 L707.758938,435.0 L708.41308,435.0 L708.41308,435.0 L709.067222,435.0 L709.067222,435.0 L709.721364,435.0 L709.721364,435.0 L710.375506,435.0 L710.375506,435.0 L711.029648,435.0 L711.029648,435.0 L711.68379,435.0 L711.68379,435.0 L712.337932,435.0 L712.337932,435.0 L712.992074,435.0 L712.992074,435.0 L713.646216,435.0 L713.646216,435.0 L714.300358,435.0 L714.300358,435.0 L714.9545,435.0 L714.9545,435.0 L715.608642,435.0 L715.608642,435.0 L716.262784,435.0 L716.262784,435.0 L716.916926,435.0 L716.916926,435.0 L717.571068,435.0 L717.571068,435.0 L718.22521,435.0 L718.22521,435.0 L718.879352,435.0 L718.879352,435.0 L719.533494,435.0 L719.533494,435.0 L720.187636,435.0 L720.187636,435.0 L720.841778,435.0 L720.841778,435.0 L721.49592,435.0 L721.49592,435.0 L722.150062,435.0 L722.150062,435.0 L722.804204,435.0 L722.804204,435.0 L723.458346,435.0 L723.458346,435.0 L724.112488,435.0 L724.112488,435.0 L724.76663,435.0 L724.76663,435.0 L725.420772,435.0 L725.420772,435.0 L726.074914,435.0 L726.074914,435.0 L726.729056,435.0 L726.729056,435.0 L727.383198,435.0 L727.383198,435.0 L728.03734,435.0 L728.03734,435.0 L728.691482,435.0 L728.691482,435.0 L729.345624,435.0 L729.345624,435.0 L729.999766,435.0 L729.999766,435.0 " fill-rule="evenodd" vector-effect="non-scaling-stroke"/>
                    </g>
                </g>
                <g fill="none" fill-rule="evenodd" id="ArrowItem_1" stroke="black" stroke-linecap="square" stroke-linejoin="bevel" stroke-width="1">
                    


                    <g fill="#3232c8" fill-opacity="1" font-family="Ubuntu" font-size="14.6667" font-style="normal" font-weight="400" stroke="#00ff00" stroke-linecap="square" stroke-linejoin="bevel" stroke-opacity="1" stroke-width="1">
                        

                        <path d="M60.8125,435.0 L58.250325,425.437825 L62.1474375,427.687825 L66.6474375,419.8936 L70.9775625,422.3936 L66.4775625,430.187825 L70.374675,432.437825 L60.8125,435.0 " fill-rule="evenodd" vector-effect="non-scaling-stroke"/>
                        

                    </g>
                    

                </g>
                <g fill="none" fill-rule="evenodd" id="ArrowItem_2" stroke="black" stroke-linecap="square" stroke-linejoin="bevel" stroke-width="1">
                    <g fill="#3232c8" fill-opacity="1" font-family="Ubuntu" font-size="14.6667" font-style="normal" font-weight="400" stroke="#ff0000" stroke-linecap="square" stroke-linejoin="bevel" stroke-opacity="1" stroke-width="1">
                        <path d="M266.867,434.528 L257.895009,438.711711 L259.434099,434.4830925 L250.976862,431.4049125 L252.686962,426.7064475 L261.144199,429.7846275 L262.683289,425.556009 L266.867,434.528 " fill-rule="evenodd" vector-effect="non-scaling-stroke"/>
                    </g>
                </g>
            </g>
        </g>
    </g>
</g>

</svg>
