<?xml version="1.0" encoding="iso-8859-1"?>
<!-- Generator: Adobe Illustrator 19.0.0, SVG Export Plug-In . SVG Version: 6.00 Build 0)  -->
<svg version="1.1" id="Layer_1" xmlns="http://www.w3.org/2000/svg" xmlns:xlink="http://www.w3.org/1999/xlink" x="0px" y="0px"
	 viewBox="0 0 512 512" style="enable-background:new 0 0 512 512;" xml:space="preserve">
<path style="fill:#666666;" d="M256,0c141.378,0,256,114.609,256,256S397.378,512,256,512C114.609,512,0,397.391,0,256
	S114.609,0,256,0z"/>
<path style="fill:#FCBB29;" d="M256,36.095c121.45,0,219.905,98.456,219.905,219.905S377.45,475.905,256,475.905
	S36.095,377.45,36.095,256S134.55,36.095,256,36.095z"/>
<g>
	<path style="fill:#4D4D4D;" d="M256,226.037c16.54,0,29.963,13.423,29.963,29.963S272.54,285.963,256,285.963
		c-16.566,0-29.963-13.423-29.963-29.963S239.434,226.037,256,226.037z"/>
	<path style="fill:#4D4D4D;" d="M284.237,307.501l61.807,109.508c-26.588,15.046-57.324,23.625-90.044,23.625
		c-33.377,0-64.654-8.914-91.615-24.514l62.876-108.903c8.45,4.895,18.266,7.703,28.739,7.703
		C266.254,314.921,275.889,312.229,284.237,307.501z"/>
	<path style="fill:#4D4D4D;" d="M439.166,257.456H313.453c0-21.062-11.323-39.47-28.25-49.466l63.932-108.284
		C403.033,131.588,439.166,190.303,439.166,257.456z"/>
	<path style="fill:#4D4D4D;" d="M162.852,99.705l63.932,108.284c-16.914,9.996-28.25,28.404-28.25,49.466H72.821
		C72.821,190.303,108.967,131.588,162.852,99.705z"/>
</g>
<g>
</g>
<g>
</g>
<g>
</g>
<g>
</g>
<g>
</g>
<g>
</g>
<g>
</g>
<g>
</g>
<g>
</g>
<g>
</g>
<g>
</g>
<g>
</g>
<g>
</g>
<g>
</g>
<g>
</g>
</svg>
