<?xml version="1.0" encoding="UTF-8" standalone="no"?>
<!-- Created with Inkscape (http://www.inkscape.org/) -->

<svg
   xmlns:dc="http://purl.org/dc/elements/1.1/"
   xmlns:cc="http://creativecommons.org/ns#"
   xmlns:rdf="http://www.w3.org/1999/02/22-rdf-syntax-ns#"
   xmlns:svg="http://www.w3.org/2000/svg"
   xmlns="http://www.w3.org/2000/svg"
   xmlns:sodipodi="http://sodipodi.sourceforge.net/DTD/sodipodi-0.dtd"
   xmlns:inkscape="http://www.inkscape.org/namespaces/inkscape"
   id="svg2"
   version="1.1"
   inkscape:version="0.91 r13725"
   width="647.5"
   height="407.5"
   viewBox="0 0 647.5 407.5"
   sodipodi:docname="clamping.svg">
  <metadata
     id="metadata8">
    <rdf:RDF>
      <cc:Work
         rdf:about="">
        <dc:format>image/svg+xml</dc:format>
        <dc:type
           rdf:resource="http://purl.org/dc/dcmitype/StillImage" />
        <dc:title></dc:title>
      </cc:Work>
    </rdf:RDF>
  </metadata>
  <defs
     id="defs6" />
  <sodipodi:namedview
     pagecolor="#ffffff"
     bordercolor="#666666"
     borderopacity="1"
     objecttolerance="10"
     gridtolerance="10"
     guidetolerance="10"
     inkscape:pageopacity="0"
     inkscape:pageshadow="2"
     inkscape:window-width="1920"
     inkscape:window-height="1056"
     id="namedview4"
     showgrid="false"
     inkscape:zoom="0.4957529"
     inkscape:cx="-167.42212"
     inkscape:cy="203.75"
     inkscape:window-x="0"
     inkscape:window-y="24"
     inkscape:window-maximized="1"
     inkscape:current-layer="g8070" />
  <g
     id="g8070"
     transform="translate(-8.0685356,2.017134)">
    <path
       style="fill-opacity:1"
       d="m 6.25,206.875 0,-200.625 320.625,0 320.625,0 0,200.625 0,200.625 -320.625,0 -320.625,0 0,-200.625 z m 640,0.625 0,-198.75 -318.75,0 -318.75,0 0,138.75 0,138.75 28.26051,0 28.26051,0 -0.792961,-3.15941 C 60.419681,266.92072 58.51346,248.32869 59.09882,230.625 c 0.994524,-30.0785 6.697739,-45.2102 23.359121,-61.97618 10.396307,-10.46156 21.004489,-16.60157 35.428419,-20.50595 7.10311,-1.92271 8.36364,-2.67908 8.36364,-5.01855 0,-3.77921 4.81691,-10.60517 9.9021,-14.03207 5.89484,-3.97254 16.80096,-3.97254 22.6958,0 5.1781,3.48951 9.9021,10.27232 9.9021,14.2176 l 0,2.94015 35,0 35,0 0,-20 c 0,-12.5 0.46875,-20 1.25,-20 0.80807,0 1.25,14.58333 1.25,41.25 0,26.66666 -0.44193,41.25 -1.25,41.25 -0.78125,0 -1.25,-7.5 -1.25,-20 l 0,-20 -35,0 -35,0 0,2.94015 c 0,6.35225 -10.62366,17.05985 -16.92611,17.05985 -3.42027,0 -3.75984,0.82791 -5.65467,13.78669 -4.03321,27.5833 8.19402,60.53568 34.88897,94.02581 l 7.7219,9.6875 19.98496,0 19.98495,0 0,31.25 0,31.25 -41.25,0 -41.25,0 0,-31.25 0,-31.25 18.81785,0 18.81785,0 -7.96209,-10.3125 c -25.74385,-33.34348 -37.17714,-65.13864 -33.46206,-93.0557 0.76412,-5.74213 1.67871,-11.19435 2.03241,-12.11606 0.42366,-1.10405 -0.70917,-1.94628 -3.3202,-2.46849 -5.10301,-1.0206 -13.44969,-9.36439 -14.46976,-14.46475 -0.73346,-3.66731 -1.0765,-3.89759 -4.6852,-3.14515 -6.20092,1.29295 -17.75063,6.19601 -25.309559,10.74439 -15.678391,9.43402 -28.198995,28.65213 -32.42607,49.77138 -1.696664,8.47685 -1.972547,14.56032 -1.388839,30.625 0.400622,11.02579 1.270548,22.29688 1.93317,25.04688 0.662623,2.75 1.856137,8.23437 2.652255,12.1875 l 1.447488,7.1875 29.911377,0 29.911378,0 0,31.25 0,31.25 -60,0 -60,0 0,28.75 0,28.75 318.75,0 318.75,0 0,-198.75 z m -360,110 0,-31.25 30,0 30,0 0,-19.375 0,-19.375 -10.625,0 c -5.84375,0 -10.625,-0.28979 -10.625,-0.64397 0,-0.35418 4.74941,-9.07293 10.55426,-19.375 l 10.55425,-18.73103 -11.17925,0 c -6.61951,0 -11.17926,-0.50985 -11.17926,-1.25 0,-0.74074 4.58334,-1.25 11.25,-1.25 l 11.25,0 0,-18.75 0,-18.75 -2.94015,0 c -6.42396,0 -17.05985,-10.63589 -17.05985,-17.05985 l 0,-2.94015 -35,0 -35,0 0,20 c 0,12.5 -0.46875,20 -1.25,20 -0.80807,0 -1.25,-14.58334 -1.25,-41.25 0,-26.66667 0.44193,-41.25 1.25,-41.25 0.78125,0 1.25,7.5 1.25,20 l 0,20 35,0 c 34.44932,0 35,-0.0404 35,-2.56208 0,-6.3386 8.32219,-15.66486 15.2071,-17.04185 4.18674,-0.83733 4.21506,-0.61735 -2.10546,-16.35555 C 333.73804,96.312554 322.95095,80.484151 312.78676,71.310596 303.37977,62.82045 286.26574,53.596338 274.37895,50.609582 242.76556,42.666189 204.12871,47.112277 161.875,63.555841 l -12.5,4.864531 -0.36305,10.164814 -0.36305,10.164814 -41.19945,0 -41.19945,0 0,-31.25 0,-31.25 41.25,0 41.25,0 0,19.255692 0,19.255693 10.9375,-4.33543 C 187.05207,49.579122 215.37871,43.549514 240,43.330632 c 17.68869,-0.157252 30.03629,1.698793 43.95685,6.607424 28.8536,10.174285 51.05279,34.360124 62.29918,67.874444 2.35847,7.02829 3.29423,8.4375 5.60281,8.4375 6.27072,0 16.89116,10.7265 16.89116,17.05985 l 0,2.94015 17.60754,0 17.60753,0 2.64055,6.25 c 1.4523,3.4375 2.96667,6.25 3.36527,6.25 0.39858,0 3.53991,-6.60938 6.9807,-14.6875 3.83896,-9.01291 6.9485,-14.6875 8.04841,-14.6875 1.09991,0 4.20945,5.67459 8.04841,14.6875 3.44079,8.07812 6.56902,14.6875 6.95159,14.6875 0.38257,0 3.5108,-6.60938 6.95159,-14.6875 3.83896,-9.01291 6.9485,-14.6875 8.04841,-14.6875 1.09991,0 4.20945,5.67459 8.04841,14.6875 3.44079,8.07812 6.56902,14.6875 6.95159,14.6875 0.38257,0 3.49221,-6.56298 6.9103,-14.58439 3.41809,-8.02141 6.92775,-14.8216 7.79926,-15.11152 0.97858,-0.32554 3.08148,2.86187 5.49863,8.33439 l 3.91405,8.86152 17.78686,0 17.78687,0 5.0093,6.5625 c 27.41328,35.91316 28.47813,81.43961 2.87537,122.93234 l -6.09648,9.88016 28.63293,0.33554 28.63291,0.33554 0,31.22696 0,31.22696 -61.25,0 -61.25,0 0,-31.25 0,-31.25 29.95342,0 29.95343,0 4.8755,-7.1875 c 19.10269,-28.16131 25.7374,-60.06096 18.39385,-88.4375 -2.52793,-9.7683 -11.78808,-28.42858 -17.80421,-35.87755 l -4.74699,-5.87756 -17.92004,-0.0599 -17.92003,-0.0599 -2.64055,-6.25 c -1.4523,-3.4375 -2.96667,-6.25 -3.36527,-6.25 -0.39858,0 -3.53991,6.60937 -6.9807,14.6875 -3.83896,9.01291 -6.9485,14.6875 -8.04841,14.6875 -1.09991,0 -4.20945,-5.67459 -8.04841,-14.6875 C 458.5108,142.85937 455.38257,136.25 455,136.25 c -0.38257,0 -3.5108,6.60937 -6.95159,14.6875 -3.83896,9.01291 -6.9485,14.6875 -8.04841,14.6875 -1.09991,0 -4.20945,-5.67459 -8.04841,-14.6875 C 428.5108,142.85937 425.38257,136.25 425,136.25 c -0.38257,0 -3.49221,6.56297 -6.9103,14.58439 -3.41809,8.02141 -6.92775,14.8216 -7.79926,15.11152 -0.97858,0.32554 -3.08148,-2.86187 -5.49863,-8.33438 l -3.91405,-8.86153 -16.06387,0 c -16.03215,0 -16.06389,0.006 -16.06389,2.94015 0,6.42396 -10.63589,17.05985 -17.05985,17.05985 l -2.94015,0 0,18.75 0,18.75 11.25,0 c 6.66666,0 11.25,0.50926 11.25,1.25 0,0.74015 -4.55975,1.25 -11.17926,1.25 l -11.17925,0 10.55425,18.73103 C 365.25059,237.7831 370,246.50185 370,246.85603 370,247.21021 365.21875,247.5 359.375,247.5 l -10.625,0 0,19.375 0,19.375 30,0 30,0 0,31.25 0,31.25 -61.25,0 -61.25,0 0,-31.25 z m 120,0 0,-28.75 -58.75,0 -58.75,0 0,28.75 0,28.75 58.75,0 58.75,0 0,-28.75 z m -98.75,-8.75 0,-18.75 10.68181,0 c 9.67453,0 10.97115,0.28933 13.75,3.06819 2.20254,2.20254 3.05698,4.40671 3.02844,7.8125 -0.0674,8.04883 -4.63929,11.61931 -14.87808,11.61931 l -6.33217,0 0,7.5 c 0,7.16666 -0.13889,7.5 -3.125,7.5 l -3.125,0 0,-18.75 z m 19.37431,-3.74944 c 2.25289,-1.86971 2.45408,-6.42217 0.37569,-8.50056 -0.825,-0.825 -4.2,-1.5 -7.5,-1.5 l -6,0 0,6.41256 0,6.41257 5.62431,-0.63394 c 3.09338,-0.34866 6.46838,-1.33445 7.5,-2.19063 z m 18.2858,4.3496 C 341.63455,299.29341 338.75,290.8255 338.75,290.53259 c 0,-0.29293 1.36832,-0.53259 3.04071,-0.53259 2.7702,0 3.46113,1.27737 7.76645,14.35855 2.59917,7.8972 5.05774,13.94407 5.4635,13.4375 0.40576,-0.50658 2.64657,-6.96793 4.97956,-14.35855 3.82322,-12.11145 4.53423,-13.4375 7.20503,-13.4375 2.25377,0 2.79668,0.52373 2.2676,2.1875 -0.3826,1.20312 -3.13849,9.5 -6.1242,18.4375 -4.93335,14.76764 -5.71819,16.28467 -8.60349,16.63007 -3.03086,0.36284 -3.46582,-0.44967 -9.58505,-17.90491 z M 383.75,315 l 0,-12.5 -3.75,0 c -5.22326,0 -5.30448,-4.3766 -0.1005,-5.41739 2.16636,-0.43327 3.97855,-1.76674 4.45924,-3.28125 0.44537,-1.40325 1.61561,-2.55136 2.60053,-2.55136 1.47202,0 1.79077,3.22614 1.79077,18.125 0,17.29166 -0.11488,18.125 -2.5,18.125 -2.33334,0 -2.5,-0.83334 -2.5,-12.5 z m 202.5,2.5 0,-28.75 -44.0625,0.005 -44.0625,0.005 3.98272,2.42844 c 4.16108,2.53718 6.64228,6.03172 6.64228,9.35503 0,3.14547 -4.88679,2.32328 -6.43895,-1.08333 -2.92904,-6.42855 -11.97765,-7.01164 -17.50501,-1.12803 -4.25156,4.52559 -4.22983,16.33464 0.0385,20.87799 5.9997,6.38639 16.005,4.82369 18.70497,-2.92148 l 1.3205,-3.78797 -5.55997,0 C 494.58334,312.5 493.75,312.1253 493.75,310 c 0,-2.24359 0.83334,-2.5 8.125,-2.5 l 8.125,0 0,10 c 0,9.16666 -0.20834,10 -2.5,10 -1.375,0 -2.5,-0.82478 -2.5,-1.83284 0,-1.46342 -0.89326,-1.30581 -4.43177,0.78196 -5.03883,2.97298 -12.28134,2.67302 -17.46484,-0.72333 -10.90412,-7.14465 -9.50774,-29.13995 2.2169,-34.91997 l 4.05471,-1.9989 -10.3125,-0.0285 -10.3125,-0.0285 0,28.75 0,28.75 58.75,0 58.75,0 0,-28.75 z m -70,-8.75 0,-18.75 2.94889,0 c 2.40923,0 4.52521,2.55816 11.5625,13.97879 l 8.61361,13.97879 0.35344,-13.97879 C 540.05581,291.03069 540.26319,290 542.54094,290 544.87706,290 545,290.93739 545,308.75 l 0,18.75 -3.04561,0 c -2.52313,0 -4.50676,-2.34681 -11.5625,-13.67945 l -8.51689,-13.67946 -0.35344,13.67946 c -0.32685,12.65042 -0.53842,13.67945 -2.8125,13.67945 -2.33612,0 -2.45906,-0.93739 -2.45906,-18.75 z m 36.25,0 0,-18.75 10.44247,0 c 9.36279,0 10.78577,0.31815 13.76273,3.07711 4.05465,3.75773 5.7948,8.06635 5.7948,14.34801 0,8.08348 -1.44269,12.57527 -5.26743,16.4 -3.48478,3.48479 -4.2195,3.67488 -14.20372,3.67488 l -10.52885,0 0,-18.75 z m 21.15927,10.45642 c 1.93639,-2.46171 2.59073,-5.1027 2.59073,-10.45642 0,-10.14889 -2.97013,-13.75 -11.34073,-13.75 l -6.15927,0 0,13.75 0,13.75 6.15927,0 c 5.16513,0 6.57744,-0.5316 8.75,-3.29358 z M 356.83078,162.6191 c 7.77225,-4.36784 10.72951,-15.29219 6.404,-23.65683 -2.87327,-5.55626 -8.8429,-8.95292 -15.73478,-8.95292 -20.32136,0 -24.8507,27.64486 -5.625,34.33221 5.47181,1.90328 9.28564,1.46404 14.95578,-1.72246 z M 146.25,57.5 l 0,-28.75 -38.75,0 -38.75,0 0,28.75 0,28.75 38.75,0 38.75,0 0,-28.75 z M 81.631875,48.838482 c 6.442181,-18.66657 6.5228,-18.81428 10.275382,-18.826333 3.759544,-0.01213 3.817722,0.0951 9.687503,17.845772 3.24788,9.821856 5.90524,18.259356 5.90524,18.75 0,0.490644 -1.33315,0.892079 -2.96255,0.892079 -2.44452,0 -3.23793,-0.983589 -4.53745,-5.625 l -1.574903,-5.625 -6.608382,0 -6.608381,0 -1.763067,5.3125 c -1.405963,4.236476 -2.425738,5.391256 -5.034791,5.701334 l -3.271727,0.388834 6.493126,-18.814186 z M 95.530671,48.4375 c -0.48829,-1.546875 -1.558722,-4.756835 -2.37874,-7.133245 l -1.49094,-4.320745 -2.080496,6.105919 C 86.813317,51.21065 86.824787,51.25 91.959235,51.25 c 4.054109,0 4.378577,-0.255517 3.571436,-2.8125 z M 110,65.584851 c 0,-5.277648 3.76559,-10.453662 10.55108,-14.503064 10.09831,-6.0264 11.20451,-13.697013 2.10559,-14.600705 -3.51244,-0.348851 -4.17923,0.115925 -5.82821,4.0625 -2.33532,5.589198 -5.57846,5.966856 -5.57846,0.649599 0,-5.884905 4.82355,-9.943181 11.81818,-9.943181 6.30128,0 10.04787,2.663906 11.41662,8.117469 1.36302,5.43072 -1.70886,10.283898 -9.50825,15.021773 C 114.16451,60.957213 114.29532,62.5 125.66423,62.5 134.16666,62.5 135,62.723156 135,65 c 0,2.333334 -0.83334,2.5 -12.5,2.5 -10.39424,0 -12.5,-0.322627 -12.5,-1.915149 z M 237.87319,226.37486 c -5.38587,-3.38389 -8.05176,-8.99162 -8.05176,-16.9369 0,-8.0422 2.65042,-14.79286 6.90155,-17.5783 4.15228,-2.72068 11.76225,-3.6653 16.08895,-1.99711 3.35323,1.29286 8.42406,7.952 8.4334,11.07495 0.009,2.76254 -5.56795,1.75485 -6.88642,-1.24446 -0.67865,-1.54383 -2.82281,-3.56341 -4.7648,-4.48796 -9.81016,-4.67049 -18.05393,9.09469 -12.87287,21.49473 3.50767,8.39505 15.28936,8.83828 18.13261,0.68214 0.8429,-2.41798 2.12346,-3.63195 3.83112,-3.63195 3.81028,0 3.30813,5.37889 -0.94671,10.14087 -4.6348,5.18724 -13.74869,6.32687 -19.86507,2.48399 z M 411.25,88.75 l 0,-18.75 11.875,0 c 10.20834,0 12.22588,0.350877 14.375,2.5 2.96587,2.96587 3.3677,10.704913 0.74989,14.442364 -1.50014,2.141756 -1.50014,2.840475 0,4.892045 0.96256,1.316378 1.75011,4.704655 1.75011,7.529503 0,2.824848 0.675,5.811088 1.5,6.636088 1.16666,1.16667 0.6237,1.5 -2.44336,1.5 -4.13358,0 -4.44943,-0.63515 -5.59453,-11.25 -0.31477,-2.917929 -0.85479,-3.14966 -8.14961,-3.497146 l -7.8125,-0.372148 0,7.559648 c 0,7.230286 -0.13615,7.559646 -3.125,7.559646 l -3.125,0 0,-18.75 z m 19.18666,-2.428395 c 3.73003,-1.418151 5.2033,-5.290171 3.33861,-8.774389 C 432.63753,75.421317 431.17879,75 424.95602,75 l -7.45602,0 0,6.25 0,6.25 4.91863,0 c 2.70524,0 6.31336,-0.530277 8.01803,-1.178395 z M 126.25,317.5 l 0,-28.75 -15.9375,0.005 -15.9375,0.005 3.982722,2.42844 C 102.51881,293.72498 105,297.21951 105,300.54282 c 0,3.14547 -4.88679,2.32328 -6.438947,-1.08333 -2.929042,-6.42855 -11.977648,-7.01164 -17.505015,-1.12803 -4.251568,4.52559 -4.229826,16.33464 0.03844,20.87799 5.999697,6.38639 16.004999,4.82369 18.704976,-2.92147 l 1.320496,-3.78798 -5.559972,0 C 90.833334,312.5 90,312.1253 90,310 c 0,-2.24359 0.833334,-2.5 8.125,-2.5 l 8.125,0 0,10 c 0,9.16666 -0.20833,10 -2.5,10 -1.375,0 -2.5,-0.82478 -2.5,-1.83284 0,-1.46342 -0.89326,-1.30581 -4.43178,0.78196 -5.038824,2.97298 -12.281336,2.67302 -17.464831,-0.72333 -10.904109,-7.14465 -9.507734,-29.13995 2.216899,-34.91997 3.807446,-1.877 1.710696,-2.00063 -34.382788,-2.02736 L 8.75,288.75 l 0,28.75 0,28.75 58.75,0 58.75,0 0,-28.75 z m -93.092952,8.4375 C 32.206106,323.0495 25,292.32122 25,291.15422 25,290.5194 26.319539,290 27.93231,290 c 2.723825,0 3.137456,0.97761 5.81769,13.75 1.58696,7.5625 3.003861,13.75 3.14867,13.75 0.14481,0 1.872285,-6.1875 3.838834,-13.75 3.373812,-12.97423 3.755531,-13.75 6.765709,-13.75 3.006476,0 3.408493,0.80971 6.981925,14.0625 l 3.79176,14.0625 3.015821,-14.0625 C 64.21652,290.42907 64.409922,290 67.63124,290 l 3.3227,0 -4.610491,18.4375 c -4.369656,17.47439 -4.778651,18.45741 -7.829663,18.81881 -3.093735,0.36645 -3.357418,-0.13278 -6.767146,-12.8125 -1.951386,-7.2566 -3.868792,-13.19381 -4.260903,-13.19381 -0.392109,0 -1.707583,3.79687 -2.923277,8.4375 -1.215693,4.64062 -2.761256,10.54687 -3.434585,13.125 -1.001764,3.83567 -1.790491,4.6875 -4.340286,4.6875 -1.713828,0 -3.347571,-0.70313 -3.630541,-1.5625 z M 226.25,317.5 l 0,-28.75 -38.75,0 -38.75,0 0,28.75 0,28.75 38.75,0 38.75,0 0,-28.75 z m -58.36813,-8.66151 c 6.44218,-18.66658 6.5228,-18.81429 10.27539,-18.82634 3.75954,-0.0125 3.81771,0.0951 9.6875,17.84578 3.24788,9.82184 5.90524,18.25934 5.90524,18.75 0,0.49063 -1.33315,0.89207 -2.96255,0.89207 -2.44451,0 -3.23794,-0.98359 -4.53745,-5.625 l -1.5749,-5.625 -6.60839,0 -6.60837,0 -1.76308,5.3125 c -1.40596,4.23648 -2.42573,5.39126 -5.03478,5.70134 l -3.27173,0.38882 6.49313,-18.81417 z m 13.8988,-0.40099 c -0.48828,-1.54688 -1.55872,-4.75684 -2.37873,-7.13325 l -1.49095,-4.32074 -2.08049,6.10591 c -2.76719,8.12123 -2.75571,8.16058 2.37874,8.16058 4.05411,0 4.37857,-0.25551 3.57143,-2.8125 z M 207.5,315 l 0,-12.5 -3.75,0 c -5.22326,0 -5.30448,-4.3766 -0.1005,-5.41739 2.16636,-0.43327 3.97855,-1.76674 4.45924,-3.28125 0.44537,-1.40325 1.61561,-2.55136 2.60053,-2.55136 1.47202,0 1.79077,3.22614 1.79077,18.125 0,17.29166 -0.11488,18.125 -2.5,18.125 -2.33334,0 -2.5,-0.83334 -2.5,-12.5 z M 156.83077,162.6191 c 7.77225,-4.36784 10.72952,-15.29219 6.404,-23.65683 -2.87326,-5.55626 -8.8429,-8.95292 -15.73477,-8.95292 -20.32136,0 -24.8507,27.64486 -5.625,34.33221 5.47181,1.90328 9.28564,1.46404 14.95577,-1.72246 z"
       id="path8076"
       inkscape:connector-curvature="0" />
  </g>
</svg>
